<?xml version="1.0" encoding="UTF-8" standalone="no"?>
<!-- Created with Inkscape (http://www.inkscape.org/) -->

<svg
   width="32"
   height="32"
   viewBox="0 0 32 32"
   version="1.1"
   id="svg1"
   xmlns="http://www.w3.org/2000/svg"
   xmlns:svg="http://www.w3.org/2000/svg">
  <defs
     id="defs1" />
  <g
     id="layer10"
     transform="translate(-378)">
    <path
       id="path14-3-1-2-6-4"
       style="fill-opacity:1"
       d="m 383,30 a 3,3 0 0 0 2.96289,-2.529297 c 1.72873,-0.644609 3.17816,-1.829663 4.33594,-3.285156 1.76771,-2.222272 2.95094,-5.078842 3.78515,-7.902344 0.7942,-2.688051 1.23122,-5.29958 1.50782,-7.365234 C 396.50933,10.018897 397.82616,11 400,11 c 2.8064,0 4.493,-1.53412 5.24805,-3.009766 A 3,3 0 0 0 408,5 a 3,3 0 0 0 -3,-3 3,3 0 0 0 -3,3 3,3 0 0 0 1.26367,2.445312 C 402.73952,8.293576 401.88175,9 400,9 397.83333,9 397.02527,8.06422 396.51953,7.052734 396.01379,6.041248 396,5 396,5 a 1.0001,1.0001 0 0 0 -1.99805,-0.04492 c 0,0 -0.25437,5.408723 -1.83593,10.761719 -0.79079,2.676498 -1.92006,5.319928 -3.4336,7.222656 -0.91726,1.15313 -1.94074,2.032843 -3.14258,2.546875 A 3,3 0 0 0 383,24 a 3,3 0 0 0 -3,3 3,3 0 0 0 3,3 z" />
  </g>
</svg>
