<?xml version="1.0" encoding="UTF-8" standalone="no"?>
<!-- Created with Inkscape (http://www.inkscape.org/) -->

<svg
   width="120"
   height="80"
   viewBox="0 0 31.750001 21.166667"
   version="1.1"
   id="svg1"
   xml:space="preserve"
   xmlns="http://www.w3.org/2000/svg"
   xmlns:svg="http://www.w3.org/2000/svg"><style
     id="style18">:root {
  color-scheme: light dark;
}
path {
  fill: light-dark(#000000de, #E6E6E6);
}</style><defs
     id="defs1" /><g
     id="layer47"
     transform="translate(-1915.9808)"><path
       d="m 1918.7911,13.871641 1.1874,-0.55637 -0.5157,0.603865 4.4103,-9.2683092 h 1.3298 l 0.7328,9.2072442 -0.2714,-0.549585 0.9703,0.55637 -0.1357,0.685285 h -3.0261 l 0.1289,-0.685285 1.3638,-0.481735 -0.3054,0.47495 -0.502,-7.5584897 h -0.068 l -3.4671,7.6195547 -0.095,-0.52923 1.2009,0.481735 -0.1357,0.685285 h -2.9379 z m 2.5783,-3.005755 h 3.8132 l -0.1696,0.89562 h -3.82 z m 9.4787,3.847095 q -0.6785,0 -1.3027,-0.142485 -0.6243,-0.1357 -1.1467,-0.35282 l 1.7844,-9.1665337 0.2714,0.434239 -1.4994,-0.237475 0.1492,-0.7599195 2.2866,-0.4206705 0.156,0.08142 -0.8752,4.539165 0.047,0.09499 -1.0314,5.3126547 -0.7056,-0.780275 q 0.3664,0.196765 0.8346,0.33925 0.4681,0.1357 1.0856,0.1357 0.8074,0 1.4723,-0.318895 0.6649,-0.318895 1.1331,-0.983825 0.4682,-0.66493 0.6649,-1.662325 0.2239,-1.1534498 -0.1357,-1.7980247 -0.3528,-0.644575 -1.357,-0.644575 -0.536,0 -1.1059,0.169625 -0.5632,0.169625 -1.167,0.46138 -0.1018,0.05428 -0.2172,0.115345 l -0.034,-0.51566 q 0.7192,-0.52923 1.4724,-0.875265 0.7531,-0.35282 1.6284,-0.35282 0.9091,0 1.4791,0.454595 0.5767,0.44781 0.7667,1.23487 0.19,0.7870599 0,1.7640997 -0.2375,1.2213 -0.8685,2.08978 -0.631,0.86848 -1.6013,1.32986 -0.9634,0.454595 -2.1847,0.454595 z m 7.6874,2.714 q -0.916,0 -1.642,-0.169625 -0.7192,-0.16284 -1.3434,-0.43424 l -0.075,-0.332465 1.6826,-2.15763 h 0.7464 l -0.6785,1.051675 q -0.3325,0.62422 0.054,0.902405 0.3935,0.278185 1.4384,0.278185 0.726,0 1.3231,-0.115345 0.597,-0.115345 0.9838,-0.386745 0.3935,-0.264615 0.4817,-0.69207 0.075,-0.413885 -0.2239,-0.617435 -0.2985,-0.196765 -0.9567,-0.196765 h -4.0913 l -0.1357,-0.23069 1.9812,-2.815775 0.7124,0.278185 -1.3434,2.096565 -0.1086,-0.47495 h 3.6979 q 0.6581,0 1.0856,0.183195 0.4342,0.183195 0.6106,0.563155 0.1832,0.37996 0.075,0.9499 -0.156,0.807415 -0.7802,1.323075 -0.6175,0.522445 -1.5199,0.75992 -0.9024,0.237475 -1.9744,0.237475 z m 1.2009,-5.271945 q -0.8006,0 -1.4384,-0.28497 -0.6378,-0.291755 -0.9431,-0.848125 -0.3053,-0.563155 -0.1561,-1.3298598 0.1493,-0.7667049 0.6311,-1.2891499 0.4817,-0.522445 1.1805,-0.780275 0.7057,-0.25783 1.5199,-0.25783 0.8074,0 1.4384,0.291755 0.6378,0.291755 0.9431,0.848125 0.3121,0.55637 0.1629,1.3230749 -0.1561,0.7667048 -0.6378,1.2959348 -0.4818,0.522445 -1.1874,0.780275 -0.6989,0.251045 -1.5131,0.251045 z m 0.082,-0.820985 q 0.4546,0 0.8617,-0.17641 0.4138,-0.183195 0.7056,-0.536015 0.2917,-0.359605 0.3867,-0.8616948 0.095,-0.5020899 -0.061,-0.8549099 -0.1493,-0.35282 -0.4885,-0.52923 -0.3393,-0.183195 -0.8007,-0.183195 -0.4546,0 -0.8617,0.183195 -0.4003,0.17641 -0.6853,0.52923 -0.2781,0.35282 -0.3731,0.8549099 -0.1018,0.5020898 0.041,0.8616948 0.1492,0.35282 0.4817,0.536015 0.3393,0.17641 0.7939,0.17641 z m 2.3544,-2.9786147 -0.4071,-0.549585 2.4493,-0.386745 0.285,0.37996 -0.4885,0.73278 z"
       id="text123"
       style="font-style:italic;font-size:13.57px;line-height:1.21;font-family:'Monaspace Xenon Var';-inkscape-font-specification:'Monaspace Xenon Var Italic';text-align:center;text-anchor:middle;stroke-width:1.05833;stroke-linecap:round;stroke-linejoin:round;paint-order:stroke fill markers"
       aria-label="Abg" /></g></svg>
