<?xml version="1.0" encoding="UTF-8" standalone="no"?>
<!-- Created with Inkscape (http://www.inkscape.org/) -->

<svg
   width="120"
   height="80"
   viewBox="0 0 31.750001 21.166667"
   version="1.1"
   id="svg1"
   xml:space="preserve"
   xmlns="http://www.w3.org/2000/svg"
   xmlns:svg="http://www.w3.org/2000/svg"><style
     id="style18">:root {
  color-scheme: light dark;
}
path {
  fill: light-dark(#000000de, #E6E6E6);
}</style><defs
     id="defs1" /><g
     id="layer40"
     transform="translate(-1623.7308)"><path
       id="path113"
       d="M 1636.0025,4.2302333 V 14.610996 h 1.7032 l 0.1049,-0.874882 h 0.2414 c 0.19,0.307586 0.4589,0.558422 0.8072,0.752925 0.3483,0.18998 0.7667,0.284738 1.2552,0.284738 0.6152,0 1.1266,-0.160468 1.5337,-0.481625 0.4116,-0.32568 0.7146,-0.77313 0.909,-1.34307 0.1991,-0.56994 0.2987,-1.230401 0.2987,-1.981275 0,-0.74635 -0.097,-1.4002268 -0.292,-1.9611197 -0.1944,-0.565417 -0.4907,-1.006284 -0.8888,-1.322917 -0.3981,-0.321157 -0.9002,-0.481624 -1.5064,-0.481624 -0.4794,0 -0.8957,0.09695 -1.2485,0.291455 -0.3483,0.18998 -0.6402,0.441332 -0.8754,0.753442 h -0.094 v -4.01681 z m -6.2622,0.4749061 -2.931,9.9058566 h 2.035 l 0.587,-2.218469 h 2.681 l 0.6,2.218469 h 2.144 l -2.9652,-9.9058566 z m 17.0233,2.5037239 c -0.57,0 -1.0585,0.142395 -1.4656,0.427365 -0.4071,0.28497 -0.7166,0.680911 -0.9291,1.187524 -0.2126,0.506613 -0.3194,1.0898739 -0.3194,1.7502807 0,0.660406 0.1041,1.241472 0.3122,1.743563 0.208,0.497566 0.5114,0.886924 0.9095,1.16737 0.4025,0.280446 0.8817,0.420646 1.4381,0.420646 0.4795,0 0.8979,-0.09747 1.2553,-0.291971 0.3618,-0.194504 0.6603,-0.445339 0.8955,-0.752926 h 0.095 v 1.546676 c 0,0.5428 -0.1243,0.932157 -0.3731,1.16737 -0.2487,0.239737 -0.5993,0.359668 -1.0516,0.359668 -0.3936,0 -0.7035,-0.08159 -0.9297,-0.244429 -0.2216,-0.16284 -0.4001,-0.409287 -0.5359,-0.73949 l -1.7776,0.359668 c 0.1,0.398053 0.2644,0.739256 0.495,1.024227 0.2353,0.289493 0.577,0.515671 1.0248,0.678511 0.4523,0.167364 1.0268,0.251148 1.7234,0.251148 0.7644,0 1.3931,-0.108442 1.8862,-0.325562 0.4975,-0.212597 0.8683,-0.545022 1.1126,-0.997355 0.2488,-0.44781 0.3731,-1.031588 0.3731,-1.750797 V 7.3649263 h -1.7028 l -0.091,0.888835 h -0.2548 c -0.1221,-0.199027 -0.2826,-0.375373 -0.4816,-0.529167 -0.199,-0.158316 -0.434,-0.283154 -0.7054,-0.37362 -0.2714,-0.09499 -0.5726,-0.142111 -0.9028,-0.142111 z m -16.0533,0.352434 h 0.095 l 0.9157,3.3858397 h -1.9069 z m 8.5426,1.248502 c 0.3709,0 0.676,0.0772 0.9157,0.230994 0.2398,0.14927 0.4183,0.382032 0.5359,0.6986649 0.1222,0.3166338 0.1835,0.7262588 0.1835,1.2283488 0,0.506614 -0.061,0.922823 -0.1835,1.248503 -0.1221,0.32568 -0.3028,0.56722 -0.5426,0.725537 -0.2397,0.153793 -0.5448,0.230994 -0.9157,0.230994 -0.2668,0 -0.5385,-0.04325 -0.8144,-0.129191 -0.1657,-0.05246 -0.3261,-0.122478 -0.4816,-0.210324 V 9.1513813 c 0.1525,-0.08506 0.3108,-0.1537 0.4749,-0.205673 0.2759,-0.09047 0.5519,-0.135909 0.8278,-0.135909 z m 8.4062,0.0067 c 0.2669,0 0.5363,0.04325 0.8077,0.129191 0.1688,0.05256 0.3315,0.121858 0.4884,0.208256 v 2.8018967 c -0.1539,0.0853 -0.3144,0.153591 -0.4816,0.205672 -0.2714,0.08594 -0.5452,0.129191 -0.8212,0.129191 -0.3483,0 -0.6446,-0.06571 -0.8888,-0.196887 -0.2443,-0.131178 -0.4294,-0.323403 -0.556,-0.57671 -0.1267,-0.257829 -0.1902,-0.572182 -0.1902,-0.943094 0,-0.375437 0.063,-0.6941778 0.1902,-0.9565308 0.1312,-0.2623529 0.3185,-0.4616799 0.5627,-0.5973799 0.2443,-0.1357 0.5405,-0.203605 0.8888,-0.203605 z"
       style="font-weight:bold;font-size:13.57px;line-height:1.21;font-family:'Monaspace Neon Var';-inkscape-font-specification:'Monaspace Neon Var Bold';text-align:center;text-anchor:middle;stroke-width:1.05833;stroke-linecap:round;stroke-linejoin:round;paint-order:stroke fill markers" /></g></svg>
