<?xml version="1.0" encoding="UTF-8" standalone="no"?>
<!-- Created with Inkscape (http://www.inkscape.org/) -->

<svg
   width="120"
   height="80"
   viewBox="0 0 31.750001 21.166667"
   version="1.1"
   id="svg1"
   xml:space="preserve"
   xmlns="http://www.w3.org/2000/svg"
   xmlns:svg="http://www.w3.org/2000/svg"><style
     id="style18">:root {
  color-scheme: light dark;
}
path {
  fill: light-dark(#000000de, #E6E6E6);
}</style><defs
     id="defs1" /><g
     id="layer32"
     transform="translate(-1331.4808)"><path
       style="font-style:italic;font-weight:bold;font-size:13.57px;line-height:1.21;font-family:'Monaspace Argon Var';-inkscape-font-specification:'Monaspace Argon Var';text-align:center;text-anchor:middle;stroke-width:1.05833;stroke-linecap:round;stroke-linejoin:round;paint-order:stroke fill markers"
       d="m 1340.2281,14.448366 -0.5292,-7.0563997 h -0.1018 l -3.25,7.0563997 h -2.0898 l 4.8648,-9.9060988 h 2.1441 l 1.0313,9.9060988 z m -3.5486,-3.6639 h 4.7699 l -0.2714,1.404495 h -4.7699 z m 8.6441,2.842915 -1.6826,0.820985 h -0.38 l 2.0151,-10.3810488 h 2.0016 l -1.7844,9.2004588 z m 5.7605,-3.13467 q -0.2646,1.39771 -0.9567,2.32047 -0.6921,0.915975 -1.6623,1.357 -0.9703,0.43424 -2.1034,0.43424 -0.726,0 -1.3977,-0.17641 -0.6649,-0.17641 -1.2009,-0.51566 l 1.2145,-1.377355 q 0.475,0.32568 0.8617,0.468165 0.3867,0.142485 0.9024,0.142485 0.3121,0 0.5632,-0.05428 0.2578,-0.06106 0.502,-0.196765 0.3393,-0.183195 0.6446,-0.644575 0.3121,-0.46138 0.4818,-1.363785 0.2103,-1.0448898 -0.01,-1.6826797 -0.2171,-0.63779 -1.1603,-0.63779 -0.441,0 -0.9906,0.156055 -0.5428,0.14927 -1.1806,0.427455 l 0.7464,-1.15345 h 0.2917 q 0.5361,-0.454595 1.1196,-0.698855 0.5903,-0.24426 1.262,-0.24426 0.8345,0 1.3705,0.4071 0.5428,0.400315 0.726,1.173805 0.1832,0.77349 -0.027,1.8590897 z m 3.9489,1.357 q -0.8617,0 -1.4995,-0.318895 -0.6378,-0.32568 -0.9228,-0.86848 -0.2849,-0.5428 -0.1628,-1.1738047 0.1425,-0.766705 0.7056,-1.323075 0.5632,-0.55637 1.3774,-0.84134 0.8142,-0.28497 1.7166,-0.28497 0.726,0 1.3027,0.196765 0.5835,0.18998 0.916,0.5428 l -0.01,0.35282 q 0.1628,0.1357 0.285,0.33925 0.1289,0.20355 0.1764,0.481735 0.047,0.2714 -0.014,0.5970799 -0.1425,0.7124248 -0.7056,1.2348698 -0.5564,0.522445 -1.3909,0.793845 -0.8346,0.2714 -1.7777,0.2714 z m 2.999,-4.2202697 q 0.4953,-0.23069 1.0856,-0.43424 0.597,-0.20355 1.1263,-0.237475 l 0.014,1.214515 -1.8862,0.1357 z m -3.0397,3.9081597 -0.3054,0.644575 q -0.1017,0.223905 -0.081,0.33925 0.02,0.115345 0.1018,0.156055 0.081,0.04071 0.2646,0.06785 l 2.2391,0.42067 q 0.4817,0.09499 0.8684,0.2714 0.3868,0.169625 0.6175,0.536015 0.2307,0.36639 0.1153,0.96347 -0.1628,0.84134 -0.8617,1.39771 -0.692,0.563155 -1.7301,0.827769 -1.0381,0.264615 -2.2527,0.264615 -0.8888,0 -1.6351,-0.210335 -0.7396,-0.20355 -1.1399,-0.603864 -0.4003,-0.400315 -0.2918,-0.970255 0.075,-0.37996 0.4071,-0.725995 0.3257,-0.346035 0.8956,-0.63779 l 1.3706,-0.70564 0.6649,0.51566 q -0.156,0.0882 -0.2714,0.156055 -0.3053,0.17641 -0.5088,0.318895 -0.2036,0.14927 -0.3664,0.346035 -0.1629,0.20355 -0.2104,0.44781 -0.061,0.305325 0.1357,0.48852 0.1968,0.183195 0.57,0.25783 0.3732,0.07464 0.882,0.07464 0.6785,0 1.2213,-0.115345 0.5496,-0.115345 0.8685,-0.318895 0.3257,-0.20355 0.3732,-0.441025 0.041,-0.23069 -0.1832,-0.359605 -0.2239,-0.128915 -0.7939,-0.24426 l -1.6555,-0.33925 q -0.4275,-0.08821 -0.7396,-0.25783 -0.3053,-0.169625 -0.4546,-0.39353 -0.1492,-0.23069 -0.1017,-0.48852 0.041,-0.18998 0.1357,-0.386745 0.095,-0.20355 0.2374,-0.43424 0.061,-0.10856 0.1222,-0.20355 l 0.4817,-0.8142 z m 2.0558,-1.9065848 q 0.1222,-0.6174349 -0.1628,-0.9634699 -0.285,-0.346035 -1.1738,-0.346035 -0.38,0 -0.6175,0.05428 -0.2306,0.05428 -0.3663,0.142485 -0.129,0.08821 -0.2172,0.2714 -0.088,0.17641 -0.156,0.508875 -0.1154,0.6174349 0.1628,0.9634697 0.285,0.346035 1.1738,0.346035 0.38,0 0.6175,-0.05428 0.2374,-0.05428 0.3731,-0.142485 0.1222,-0.0882 0.2104,-0.264615 0.095,-0.1831948 0.156,-0.5156598 z"
       id="text86"
       aria-label="Abg" /></g></svg>
