<?xml version="1.0" encoding="UTF-8" standalone="no"?>
<svg
   viewBox="0 0 24 24"
   version="1.1"
   id="svg1"
   width="24"
   height="24"
   xml:space="preserve"
   xmlns="http://www.w3.org/2000/svg"
   xmlns:svg="http://www.w3.org/2000/svg"><defs
     id="defs1" /><path
     id="switch-false"
     d="m 5.75,2.5 c -2.77,0 -5,2.23 -5,5 v 9 c 0,2.77 2.23,5 5,5 h 12.5 c 2.77,0 5,-2.23 5,-5 v -9 c 0,-2.77 -2.23,-5 -5,-5 z m 0,2 h 9 c 1.662,0 3,1.338 3,3 v 9 c 0,1.662 -1.338,3 -3,3 h -9 c -1.662,0 -3,-1.338 -3,-3 v -9 c 0,-1.662 1.338,-3 3,-3 z m 4.558594,2.75 C 7.6972829,7.2178 5.532185,9.3300964 5.5,11.941406 5.4678,14.552711 7.5801009,16.71782 10.191406,16.75 12.802716,16.7822 14.967815,14.669904 15,12.058594 15.0322,9.4472885 12.919899,7.282185 10.308594,7.25 Z m -0.02539,2 C 11.813713,9.26885 13.018865,10.504651 13,12.035156 12.98115,13.565666 11.747302,14.76886 10.216797,14.75 8.6862865,14.73115 7.481135,13.497302 7.5,11.966797 7.51885,10.436287 8.752692,9.23114 10.283204,9.25 Z"
     style="display:inline" /></svg>
