<?xml version="1.0" encoding="UTF-8" standalone="no"?>
<svg
   viewBox="0 0 24 24"
   version="1.1"
   id="svg1"
   width="24"
   height="24"
   xml:space="preserve"
   xmlns="http://www.w3.org/2000/svg"
   xmlns:svg="http://www.w3.org/2000/svg"><defs
     id="defs1" /><g
     id="g49"
     transform="translate(-32,-34)"><path
       d="M 43.832031,35.013672 A 1.0001,1.0001 0 0 0 43.513672,35.125 l -9,5 A 1.0001,1.0001 0 0 0 34,41 v 10 a 1.0001,1.0001 0 0 0 0.513672,0.875 l 9,5 a 1.0001,1.0001 0 0 0 0.972656,0 l 9,-5 A 1.0001,1.0001 0 0 0 54,51 V 41 a 1.0001,1.0001 0 0 0 -0.513672,-0.875 l -9,-5 A 1.0001,1.0001 0 0 0 43.832031,35.013672 Z M 44,37.144531 51.970703,41.572266 49.677734,42.845703 52,45.75 v 4.083984 l -4.806641,-5.607422 -1.935547,1.074219 5.142579,6 L 49.142578,52 44,46 36.029297,41.572266 Z M 36,43 46.478516,53.478516 44,54.855469 41.425781,53.425781 36,48 Z"
       id="path2" /><path
       style="fill-opacity:0.25"
       d="m 44,36 9,5 v 10 l -9,5 -9,-5 V 41 Z"
       id="path3" /><path
       style="fill-opacity:0.25"
       d="m 44,46 9,-5 v 10 l -9,5 -9,-5 V 41 Z"
       id="path4" /></g></svg>
