<?xml version="1.0" encoding="UTF-8" standalone="no"?>
<svg
   viewBox="0 0 24 24"
   version="1.1"
   id="svg1"
   width="24"
   height="24"
   xml:space="preserve"
   xmlns="http://www.w3.org/2000/svg"
   xmlns:svg="http://www.w3.org/2000/svg"><defs
     id="defs1" /><g
     id="g47"
     transform="translate(-32,-96)"><path
       style="fill-opacity:0.5"
       d="m 44.874157,98.485643 7.251686,4.028717 A 1.6995145,1.6995145 59.527302 0 1 53,104 v 8 a 1.6995145,1.6995145 120.4727 0 1 -0.874157,1.48564 l -7.251686,4.02872 a 1.8,1.8 0 0 1 -1.748314,0 l -7.251686,-4.02872 A 1.6995145,1.6995145 59.527302 0 1 35,112 v -8 a 1.6995145,1.6995145 120.4727 0 1 0.874157,-1.48564 l 7.251686,-4.028717 a 1.8,1.8 0 0 1 1.748314,0 z"
       id="path5" /><path
       style="fill-opacity:0.5"
       d="m 44.874198,99.794164 6.107073,3.392146 a 1.6993512,1.6993512 59.524896 0 1 0.874198,1.48557 v 6.65625 a 1.69935,1.69935 120.47512 0 1 -0.874198,1.48557 l -6.107073,3.39214 a 1.8003587,1.8003587 0 0 1 -1.748396,0 l -6.107073,-3.39214 a 1.69935,1.69935 59.524879 0 1 -0.874198,-1.48557 v -6.65625 a 1.6993512,1.6993512 120.4751 0 1 0.874198,-1.48557 l 6.107073,-3.392146 a 1.8003562,1.8003562 0 0 1 1.748396,0 z"
       id="path6" /><path
       d="m 44,100.60352 6.722656,3.73632 v 7.32032 L 44,115.39648 37.277344,111.66016 v -7.32032 z"
       id="path7" /></g></svg>
