<?xml version="1.0" encoding="UTF-8" standalone="no"?>
<svg
   viewBox="0 0 24 24"
   version="1.1"
   id="svg1"
   width="24"
   height="24"
   xml:space="preserve"
   xmlns="http://www.w3.org/2000/svg"
   xmlns:svg="http://www.w3.org/2000/svg"><defs
     id="defs1" /><g
     id="g45"
     transform="translate(-32,-156)"><path
       id="path15"
       d="m 43.832031,157.01367 a 1.0001,1.0001 0 0 0 -0.318359,0.11133 l -9,5 A 1.0001,1.0001 0 0 0 34,163 v 10 a 1.0001,1.0001 0 0 0 0.513672,0.875 l 9,5 a 1.0001,1.0001 0 0 0 0.972656,0 l 9,-5 A 1.0001,1.0001 0 0 0 54,173 v -10 a 1.0001,1.0001 0 0 0 -0.513672,-0.875 l -9,-5 a 1.0001,1.0001 0 0 0 -0.654297,-0.11133 z M 44,159.14453 l 6.982422,3.87891 -4.490234,2.64648 a 1,1 0 0 0 -0.353516,1.36914 1,1 0 0 0 1.36914,0.35352 L 52,164.74414 v 7.66797 l -8,4.44336 V 169 a 1.6995145,1.6995145 0 0 0 -0.875,-1.48633 l -7.095703,-3.9414 z m -7.455078,10.24219 a 0.61803399,0.61803399 0 0 1 0.349609,0.0606 l 4.210938,2.10546 A 1.618034,1.618034 0 0 1 42,173 v 1 a 0.61803399,0.61803399 0 0 1 -0.894531,0.55273 l -4.115235,-2.05859 A 1.7909267,1.7909267 0 0 1 36,170.89258 V 170 a 0.61803399,0.61803399 0 0 1 0.544922,-0.61328 z" /><path
       style="fill-opacity:0.5"
       d="m 38.867188,161.24023 a 2,2 0 0 0 -0.761719,0.20704 l -0.210938,0.10546 a 0.5,0.5 0 0 0 0,0.89454 l 2.210938,1.10546 a 2,2 0 0 0 1.789062,0 l 0.210938,-0.10546 a 0.5,0.5 0 0 0 0,-0.89454 l -2.210938,-1.10546 a 2,2 0 0 0 -1.027343,-0.20704 z m 8.029296,0.99805 a 2,2 0 0 0 -0.791015,0.20899 l -0.210938,0.10546 a 0.5,0.5 0 0 0 0,0.89454 l 0.210938,0.10546 a 2,2 0 0 0 1.789062,0 l 0.210938,-0.10546 a 0.5,0.5 0 0 0 0,-0.89454 l -0.210938,-0.10546 a 2,2 0 0 0 -0.998047,-0.20899 z m 5.525391,5.18164 a 0.58032254,0.58032254 0 0 0 -0.291016,0.0762 l -5.261718,3.00782 A 1.7231797,1.7231797 0 0 0 46,172 v 1 a 0.58032254,0.58032254 0 0 0 0.869141,0.50391 l 5.261718,-3.00782 A 1.7231797,1.7231797 0 0 0 53,169 v -1 a 0.58032254,0.58032254 0 0 0 -0.578125,-0.58008 z"
       id="path16" /></g></svg>
