<?xml version="1.0" encoding="UTF-8" standalone="no"?>
<svg
   viewBox="0 0 24 24"
   version="1.1"
   id="svg1"
   sodipodi:docname="icons.svg"
   inkscape:version="1.4 (86a8ad7, 2024-10-11)"
   inkscape:export-filename="br-switch-true.svg"
   inkscape:export-xdpi="96"
   inkscape:export-ydpi="96"
   width="24"
   height="24"
   inkscape:export-batch-path="E:\Late 2024 and Beyond\dessert brickadia guide\archive"
   inkscape:export-batch-name="icons"
   xml:space="preserve"
   xmlns:inkscape="http://www.inkscape.org/namespaces/inkscape"
   xmlns:sodipodi="http://sodipodi.sourceforge.net/DTD/sodipodi-0.dtd"
   xmlns="http://www.w3.org/2000/svg"
   xmlns:svg="http://www.w3.org/2000/svg"><defs
     id="defs1" /><sodipodi:namedview
     id="namedview1"
     pagecolor="#ffffff"
     bordercolor="#111111"
     borderopacity="1"
     inkscape:showpageshadow="0"
     inkscape:pageopacity="0"
     inkscape:pagecheckerboard="1"
     inkscape:deskcolor="#d1d1d1"
     showgrid="false"
     inkscape:zoom="11.313709"
     inkscape:cx="36.371803"
     inkscape:cy="109.51316"
     inkscape:window-width="1920"
     inkscape:window-height="1009"
     inkscape:window-x="-8"
     inkscape:window-y="-8"
     inkscape:window-maximized="1"
     inkscape:current-layer="g47"><inkscape:page
       x="-31.708029"
       y="0"
       width="24"
       height="24"
       id="page1"
       margin="0"
       bleed="0" /><inkscape:page
       x="0"
       y="0"
       width="24"
       height="24"
       id="page2"
       margin="0"
       bleed="0" /><inkscape:grid
       id="grid7"
       units="px"
       originx="0"
       originy="0"
       spacingx="1"
       spacingy="1"
       empcolor="#0099e5"
       empopacity="0.30196078"
       color="#0099e5"
       opacity="0.14901961"
       empspacing="5"
       enabled="true"
       visible="false" /><inkscape:page
       x="32"
       y="0"
       width="24"
       height="24"
       id="page21"
       margin="0"
       bleed="0" /><inkscape:page
       x="32"
       y="34"
       width="24"
       height="24"
       id="page22"
       margin="0"
       bleed="0" /><inkscape:page
       x="32"
       y="66"
       width="24"
       height="24"
       id="page30"
       margin="0"
       bleed="0" /><inkscape:page
       x="32"
       y="96"
       width="24"
       height="24"
       id="page31" /><inkscape:page
       x="32"
       y="126"
       width="24"
       height="24"
       id="page35" /><inkscape:page
       x="32"
       y="156"
       width="24"
       height="24"
       id="page36" /></sodipodi:namedview><path
     id="switch-false"
     d="M 5.75 2.5 C 2.98 2.5 0.75 4.73 0.75 7.5 L 0.75 16.5 C 0.75 19.27 2.98 21.5 5.75 21.5 L 18.25 21.5 C 21.02 21.5 23.25 19.27 23.25 16.5 L 23.25 7.5 C 23.25 4.73 21.02 2.5 18.25 2.5 L 5.75 2.5 z M 5.75 4.5 L 14.75 4.5 C 16.412 4.5 17.75 5.838 17.75 7.5 L 17.75 16.5 C 17.75 18.162 16.412 19.5 14.75 19.5 L 5.75 19.5 C 4.088 19.5 2.75 18.162 2.75 16.5 L 2.75 7.5 C 2.75 5.838 4.088 4.5 5.75 4.5 z M 10.308594 7.25 C 7.6972829 7.2178 5.532185 9.3300964 5.5 11.941406 C 5.4678 14.552711 7.5801009 16.71782 10.191406 16.75 C 12.802716 16.7822 14.967815 14.669904 15 12.058594 C 15.0322 9.4472885 12.919899 7.282185 10.308594 7.25 z M 10.283203 9.25 C 11.813713 9.26885 13.018865 10.504651 13 12.035156 C 12.98115 13.565666 11.747302 14.76886 10.216797 14.75 C 8.6862865 14.73115 7.481135 13.497302 7.5 11.966797 C 7.51885 10.436287 8.752692 9.23114 10.283203 9.25 z "
     style="display:inline" /><path
     d="m -25.958029,2.5 c -2.77,0 -5,2.23 -5,5 v 9 c 0,2.77 2.23,5 5,5 h 12.5 c 2.77,0 5.0000003,-2.23 5.0000003,-5 v -9 c 0,-2.77 -2.2300003,-5 -5.0000003,-5 z m 3.5,2 h 9 c 1.662,0 3,1.338 3,3 v 9 c 0,1.662 -1.338,3 -3,3 h -9 c -1.662,0 -3,-1.338 -3,-3 v -9 c 0,-1.662 1.338,-3 3,-3 z m 4.626953,3.25 c -0.483249,0 -0.875,0.3917508 -0.875,0.875 v 6.75 c 0,0.483249 0.391751,0.875 0.875,0.875 0.483249,0 0.875,-0.391751 0.875,-0.875 v -6.75 c 0,-0.4832492 -0.391751,-0.875 -0.875,-0.875 z"
     id="switch-true"
     style="display:inline" /><g
     id="g50"
     inkscape:label="plastic"><path
       d="M 43.832031 1.0136719 A 1.0001 1.0001 0 0 0 43.513672 1.125 L 34.513672 6.125 A 1.0001 1.0001 0 0 0 34 7 L 34 17 A 1.0001 1.0001 0 0 0 34.513672 17.875 L 43.513672 22.875 A 1.0001 1.0001 0 0 0 44.486328 22.875 L 53.486328 17.875 A 1.0001 1.0001 0 0 0 54 17 L 54 7 A 1.0001 1.0001 0 0 0 53.486328 6.125 L 44.486328 1.125 A 1.0001 1.0001 0 0 0 43.832031 1.0136719 z M 44 3.1445312 L 51.970703 7.5722656 L 44.875 11.513672 A 1.6995145 1.6995145 0 0 0 44 13 L 44 20.855469 L 36 16.412109 L 36 7.5878906 L 44 3.1445312 z "
       id="path1" /></g><g
     id="g49"
     inkscape:label="glass"><path
       d="M 43.832031 35.013672 A 1.0001 1.0001 0 0 0 43.513672 35.125 L 34.513672 40.125 A 1.0001 1.0001 0 0 0 34 41 L 34 51 A 1.0001 1.0001 0 0 0 34.513672 51.875 L 43.513672 56.875 A 1.0001 1.0001 0 0 0 44.486328 56.875 L 53.486328 51.875 A 1.0001 1.0001 0 0 0 54 51 L 54 41 A 1.0001 1.0001 0 0 0 53.486328 40.125 L 44.486328 35.125 A 1.0001 1.0001 0 0 0 43.832031 35.013672 z M 44 37.144531 L 51.970703 41.572266 L 49.677734 42.845703 L 52 45.75 L 52 49.833984 L 47.193359 44.226562 L 45.257812 45.300781 L 50.400391 51.300781 L 49.142578 52 L 44 46 L 36.029297 41.572266 L 44 37.144531 z M 36 43 L 46.478516 53.478516 L 44 54.855469 L 41.425781 53.425781 L 36 48 L 36 43 z "
       id="path2" /><path
       style="fill-opacity:0.25"
       d="m 44,36 9,5 v 10 l -9,5 -9,-5 V 41 Z"
       id="path3" /><path
       style="fill-opacity:0.25"
       d="m 44,46 9,-5 v 10 l -9,5 -9,-5 V 41 Z"
       id="path4" /></g><g
     id="g47"
     inkscape:label="glow"><path
       style="fill-opacity:0.5"
       d="m 44.874157,98.485643 7.251686,4.028717 A 1.6995145,1.6995145 59.527302 0 1 53,104 v 8 a 1.6995145,1.6995145 120.4727 0 1 -0.874157,1.48564 l -7.251686,4.02872 a 1.8,1.8 0 0 1 -1.748314,0 l -7.251686,-4.02872 A 1.6995145,1.6995145 59.527302 0 1 35,112 v -8 a 1.6995145,1.6995145 120.4727 0 1 0.874157,-1.48564 l 7.251686,-4.028717 a 1.8,1.8 0 0 1 1.748314,0 z"
       id="path5" /><path
       style="fill-opacity:0.5"
       d="m 44.874198,99.794164 6.107073,3.392146 a 1.6993512,1.6993512 59.524896 0 1 0.874198,1.48557 v 6.65625 a 1.69935,1.69935 120.47512 0 1 -0.874198,1.48557 l -6.107073,3.39214 a 1.8003587,1.8003587 0 0 1 -1.748396,0 l -6.107073,-3.39214 a 1.69935,1.69935 59.524879 0 1 -0.874198,-1.48557 v -6.65625 a 1.6993512,1.6993512 120.4751 0 1 0.874198,-1.48557 l 6.107073,-3.392146 a 1.8003562,1.8003562 0 0 1 1.748396,0 z"
       id="path6" /><path
       d="m 44,100.60352 6.722656,3.73632 v 7.32032 L 44,115.39648 37.277344,111.66016 v -7.32032 z"
       id="path7" /></g><g
     id="g48"
     inkscape:label="transparent"><path
       d="M 43.832031 67.013672 A 1.0001 1.0001 0 0 0 43.513672 67.125 L 34.513672 72.125 A 1.0001 1.0001 0 0 0 34 73 L 34 83 A 1.0001 1.0001 0 0 0 34.513672 83.875 L 43.513672 88.875 A 1.0001 1.0001 0 0 0 44.486328 88.875 L 53.486328 83.875 A 1.0001 1.0001 0 0 0 54 83 L 54 73 A 1.0001 1.0001 0 0 0 53.486328 72.125 L 44.486328 67.125 A 1.0001 1.0001 0 0 0 43.832031 67.013672 z M 44 69.144531 L 52 73.587891 L 52 82.412109 L 44 86.855469 L 36 82.412109 L 36 74.699219 L 43.513672 78.875 A 1 1 0 0 0 44.875 78.486328 A 1 1 0 0 0 44.486328 77.125 L 37.058594 73 L 44 69.144531 z "
       id="path8" /><path
       style="fill-opacity:0.25"
       d="m 44,68 9,5 v 10 l -9,5 -9,-5 V 73 Z"
       id="path9" /><path
       d="m 44,78 9,-5 v 10 l -9,5 -9,-5 V 73 Z"
       style="fill-opacity:0.25"
       id="path10" /></g><g
     id="g46"
     inkscape:label="metal"><path
       d="M 43.832031 127.01367 A 1.0001 1.0001 0 0 0 43.513672 127.125 L 34.513672 132.125 A 1.0001 1.0001 0 0 0 34 133 L 34 143 A 1.0001 1.0001 0 0 0 34.513672 143.875 L 43.513672 148.875 A 1.0001 1.0001 0 0 0 44.486328 148.875 L 53.486328 143.875 A 1.0001 1.0001 0 0 0 54 143 L 54 133 A 1.0001 1.0001 0 0 0 53.486328 132.125 L 44.486328 127.125 A 1.0001 1.0001 0 0 0 43.832031 127.01367 z M 44 129.14453 L 51.970703 133.57227 L 44.875 137.51367 A 1.6995145 1.6995145 0 0 0 44 139 L 44 146.85547 L 36 142.41211 L 36 133.58789 L 44 129.14453 z"
       id="path11" /><path
       style="fill-opacity:0.25"
       d="m 44,128 9,5 v 10 l -9,5 -9,-5 v -10 z"
       id="path12" /><path
       style="fill-opacity:0.25"
       d="M 44.874157,137.51436 53,133 v 10 l -9,5 -9,-5 v -10 l 8.125843,4.51436 a 1.8,1.8 0 0 0 1.748314,0 z"
       id="path13" /><path
       style="fill-opacity:0.25"
       d="m 44,142.5 9,-5 v 5.5 l -9,5 -9,-5 v -5.5 z"
       id="path14" /></g><g
     id="g45"
     inkscape:label="hologram"><path
       d="m 43.832031,157.01367 a 1.0001,1.0001 0 0 0 -0.318359,0.11133 l -9,5 A 1.0001,1.0001 0 0 0 34,163 v 10 a 1.0001,1.0001 0 0 0 0.513672,0.875 l 9,5 a 1.0001,1.0001 0 0 0 0.972656,0 l 9,-5 A 1.0001,1.0001 0 0 0 54,173 v -10 a 1.0001,1.0001 0 0 0 -0.513672,-0.875 l -9,-5 a 1.0001,1.0001 0 0 0 -0.654297,-0.11133 z M 44,159.14453 l 6.982422,3.87891 -4.490234,2.64648 a 1,1 0 0 0 -0.353516,1.36914 1,1 0 0 0 1.36914,0.35352 L 52,164.74414 v 7.66797 l -8,4.44336 V 169 a 1.6995145,1.6995145 0 0 0 -0.875,-1.48633 l -7.095703,-3.9414 z"
       id="path15" /><path
       style="fill-opacity:0.5"
       d="M 38.867188 161.24023 A 2 2 0 0 0 38.105469 161.44727 L 37.894531 161.55273 A 0.5 0.5 0 0 0 37.894531 162.44727 L 40.105469 163.55273 A 2 2 0 0 0 41.894531 163.55273 L 42.105469 163.44727 A 0.5 0.5 0 0 0 42.105469 162.55273 L 39.894531 161.44727 A 2 2 0 0 0 38.867188 161.24023 z M 46.896484 162.23828 A 2 2 0 0 0 46.105469 162.44727 L 45.894531 162.55273 A 0.5 0.5 0 0 0 45.894531 163.44727 L 46.105469 163.55273 A 2 2 0 0 0 47.894531 163.55273 L 48.105469 163.44727 A 0.5 0.5 0 0 0 48.105469 162.55273 L 47.894531 162.44727 A 2 2 0 0 0 46.896484 162.23828 z M 52.421875 167.41992 A 0.58032254 0.58032254 0 0 0 52.130859 167.49609 L 46.869141 170.50391 A 1.7231797 1.7231797 0 0 0 46 172 L 46 173 A 0.58032254 0.58032254 0 0 0 46.869141 173.50391 L 52.130859 170.49609 A 1.7231797 1.7231797 0 0 0 53 169 L 53 168 A 0.58032254 0.58032254 0 0 0 52.421875 167.41992 z "
       id="path16" /></g></svg>
