<?xml version="1.0" encoding="UTF-8" standalone="no"?>
<svg
   viewBox="0 0 24 24"
   version="1.1"
   id="svg1"
   width="24"
   height="24"
   xml:space="preserve"
   xmlns="http://www.w3.org/2000/svg"
   xmlns:svg="http://www.w3.org/2000/svg"><defs
     id="defs1" /><g
     id="g46"
     transform="translate(-32,-126)"><path
       d="m 43.832031,127.01367 a 1.0001,1.0001 0 0 0 -0.318359,0.11133 l -9,5 A 1.0001,1.0001 0 0 0 34,133 v 10 a 1.0001,1.0001 0 0 0 0.513672,0.875 l 9,5 a 1.0001,1.0001 0 0 0 0.972656,0 l 9,-5 A 1.0001,1.0001 0 0 0 54,143 v -10 a 1.0001,1.0001 0 0 0 -0.513672,-0.875 l -9,-5 a 1.0001,1.0001 0 0 0 -0.654297,-0.11133 z M 44,129.14453 l 7.970703,4.42774 -7.095703,3.9414 A 1.6995145,1.6995145 0 0 0 44,139 v 7.85547 l -8,-4.44336 v -8.82422 z"
       id="path8" /><path
       style="fill-opacity:0.25"
       d="m 44,128 9,5 v 10 l -9,5 -9,-5 v -10 z"
       id="path9" /><path
       style="fill-opacity:0.25"
       d="M 44.874157,137.51436 53,133 v 10 l -9,5 -9,-5 v -10 l 8.125843,4.51436 a 1.8,1.8 0 0 0 1.748314,0 z"
       id="path10" /><path
       style="fill-opacity:0.25"
       d="m 44,142.5 9,-5 v 5.5 l -9,5 -9,-5 v -5.5 z"
       id="path11" /></g></svg>
