<?xml version="1.0" encoding="UTF-8" standalone="no"?>
<svg
   viewBox="0 0 24 24"
   version="1.1"
   id="svg1"
   width="24"
   height="24"
   xml:space="preserve"
   xmlns="http://www.w3.org/2000/svg"
   xmlns:svg="http://www.w3.org/2000/svg"><defs
     id="defs1" /><g
     id="g50"
     transform="translate(-32)"><path
       d="M 43.832031,1.0136719 A 1.0001,1.0001 0 0 0 43.513672,1.125 l -9,5 A 1.0001,1.0001 0 0 0 34,7 v 10 a 1.0001,1.0001 0 0 0 0.513672,0.875 l 9,5 a 1.0001,1.0001 0 0 0 0.972656,0 l 9,-5 A 1.0001,1.0001 0 0 0 54,17 V 7 A 1.0001,1.0001 0 0 0 53.486328,6.125 l -9,-5 A 1.0001,1.0001 0 0 0 43.832031,1.0136719 Z M 44,3.1445312 51.970703,7.5722656 44.875,11.513672 A 1.6995145,1.6995145 0 0 0 44,13 v 7.855469 l -8,-4.44336 V 7.5878906 Z"
       id="path1" /></g></svg>
