<?xml version="1.0" encoding="UTF-8" standalone="no"?>
<svg
   viewBox="0 0 24 24"
   version="1.1"
   id="svg1"
   width="24"
   height="24"
   xml:space="preserve"
   xmlns="http://www.w3.org/2000/svg"
   xmlns:svg="http://www.w3.org/2000/svg"><defs
     id="defs1" /><g
     id="g1"
     transform="translate(-65)"><path
       id="switch-false"
       d="m 5.75,2.5 c -2.77,0 -5,2.23 -5,5 v 9 c 0,2.77 2.23,5 5,5 h 12.5 c 2.77,0 5,-2.23 5,-5 v -9 c 0,-2.77 -2.23,-5 -5,-5 z m 0,2 h 9 c 1.662,0 3,1.338 3,3 v 9 c 0,1.662 -1.338,3 -3,3 h -9 c -1.662,0 -3,-1.338 -3,-3 v -9 c 0,-1.662 1.338,-3 3,-3 z m 4.558594,2.75 C 7.6972829,7.2178 5.532185,9.3300964 5.5,11.941406 5.4678,14.552711 7.5801009,16.71782 10.191406,16.75 12.802716,16.7822 14.967815,14.669904 15,12.058594 15.0322,9.4472885 12.919899,7.282185 10.308594,7.25 Z m -0.02539,2 C 11.813713,9.26885 13.018865,10.504651 13,12.035156 12.98115,13.565666 11.747302,14.76886 10.216797,14.75 8.6862865,14.73115 7.481135,13.497302 7.5,11.966797 7.51885,10.436287 8.752692,9.23114 10.283204,9.25 Z"
       style="display:inline" /></g><g
     transform="translate(-33.291971,-34)"
     id="g2"><path
       d="m -25.958029,2.5 c -2.77,0 -5,2.23 -5,5 v 9 c 0,2.77 2.23,5 5,5 h 12.5 c 2.77,0 5.0000003,-2.23 5.0000003,-5 v -9 c 0,-2.77 -2.2300003,-5 -5.0000003,-5 z m 3.5,2 h 9 c 1.662,0 3,1.338 3,3 v 9 c 0,1.662 -1.338,3 -3,3 h -9 c -1.662,0 -3,-1.338 -3,-3 v -9 c 0,-1.662 1.338,-3 3,-3 z m 4.626953,3.25 c -0.483249,0 -0.875,0.3917508 -0.875,0.875 v 6.75 c 0,0.483249 0.391751,0.875 0.875,0.875 0.483249,0 0.875,-0.391751 0.875,-0.875 v -6.75 c 0,-0.4832492 -0.391751,-0.875 -0.875,-0.875 z"
       id="switch-true"
       style="display:inline" /></g><g
     transform="translate(-65,-34)"
     id="g3"><path
       id="path15"
       d="m 43.832031,157.01367 a 1.0001,1.0001 0 0 0 -0.318359,0.11133 l -9,5 A 1.0001,1.0001 0 0 0 34,163 v 10 a 1.0001,1.0001 0 0 0 0.513672,0.875 l 9,5 a 1.0001,1.0001 0 0 0 0.972656,0 l 9,-5 A 1.0001,1.0001 0 0 0 54,173 v -10 a 1.0001,1.0001 0 0 0 -0.513672,-0.875 l -9,-5 a 1.0001,1.0001 0 0 0 -0.654297,-0.11133 z M 44,159.14453 l 6.982422,3.87891 -4.490234,2.64648 a 1,1 0 0 0 -0.353516,1.36914 1,1 0 0 0 1.36914,0.35352 L 52,164.74414 v 7.66797 l -8,4.44336 V 169 a 1.6995145,1.6995145 0 0 0 -0.875,-1.48633 l -7.095703,-3.9414 z m -7.455078,10.24219 a 0.61803399,0.61803399 0 0 1 0.349609,0.0606 l 4.210938,2.10546 A 1.618034,1.618034 0 0 1 42,173 v 1 a 0.61803399,0.61803399 0 0 1 -0.894531,0.55273 l -4.115235,-2.05859 A 1.7909267,1.7909267 0 0 1 36,170.89258 V 170 a 0.61803399,0.61803399 0 0 1 0.544922,-0.61328 z" /><path
       style="fill-opacity:0.5"
       d="m 38.867188,161.24023 a 2,2 0 0 0 -0.761719,0.20704 l -0.210938,0.10546 a 0.5,0.5 0 0 0 0,0.89454 l 2.210938,1.10546 a 2,2 0 0 0 1.789062,0 l 0.210938,-0.10546 a 0.5,0.5 0 0 0 0,-0.89454 l -2.210938,-1.10546 a 2,2 0 0 0 -1.027343,-0.20704 z m 8.029296,0.99805 a 2,2 0 0 0 -0.791015,0.20899 l -0.210938,0.10546 a 0.5,0.5 0 0 0 0,0.89454 l 0.210938,0.10546 a 2,2 0 0 0 1.789062,0 l 0.210938,-0.10546 a 0.5,0.5 0 0 0 0,-0.89454 l -0.210938,-0.10546 a 2,2 0 0 0 -0.998047,-0.20899 z m 5.525391,5.18164 a 0.58032254,0.58032254 0 0 0 -0.291016,0.0762 l -5.261718,3.00782 A 1.7231797,1.7231797 0 0 0 46,172 v 1 a 0.58032254,0.58032254 0 0 0 0.869141,0.50391 l 5.261718,-3.00782 A 1.7231797,1.7231797 0 0 0 53,169 v -1 a 0.58032254,0.58032254 0 0 0 -0.578125,-0.58008 z"
       id="path16" /></g><g
     transform="translate(-65,-34)"
     id="g4"><path
       d="m 43.832031,127.01367 a 1.0001,1.0001 0 0 0 -0.318359,0.11133 l -9,5 A 1.0001,1.0001 0 0 0 34,133 v 10 a 1.0001,1.0001 0 0 0 0.513672,0.875 l 9,5 a 1.0001,1.0001 0 0 0 0.972656,0 l 9,-5 A 1.0001,1.0001 0 0 0 54,143 v -10 a 1.0001,1.0001 0 0 0 -0.513672,-0.875 l -9,-5 a 1.0001,1.0001 0 0 0 -0.654297,-0.11133 z M 44,129.14453 l 7.970703,4.42774 -7.095703,3.9414 A 1.6995145,1.6995145 0 0 0 44,139 v 7.85547 l -8,-4.44336 v -8.82422 z"
       id="path11" /><path
       style="fill-opacity:0.25"
       d="m 44,128 9,5 v 10 l -9,5 -9,-5 v -10 z"
       id="path12" /><path
       style="fill-opacity:0.25"
       d="M 44.874157,137.51436 53,133 v 10 l -9,5 -9,-5 v -10 l 8.125843,4.51436 a 1.8,1.8 0 0 0 1.748314,0 z"
       id="path13" /><path
       style="fill-opacity:0.25"
       d="m 44,142.5 9,-5 v 5.5 l -9,5 -9,-5 v -5.5 z"
       id="path14" /></g><g
     transform="translate(-65,-34)"
     id="g5"><path
       style="fill-opacity:0.5"
       d="m 44.874157,98.485643 7.251686,4.028717 A 1.6995145,1.6995145 59.527302 0 1 53,104 v 8 a 1.6995145,1.6995145 120.4727 0 1 -0.874157,1.48564 l -7.251686,4.02872 a 1.8,1.8 0 0 1 -1.748314,0 l -7.251686,-4.02872 A 1.6995145,1.6995145 59.527302 0 1 35,112 v -8 a 1.6995145,1.6995145 120.4727 0 1 0.874157,-1.48564 l 7.251686,-4.028717 a 1.8,1.8 0 0 1 1.748314,0 z"
       id="path5" /><path
       style="fill-opacity:0.5"
       d="m 44.874198,99.794164 6.107073,3.392146 a 1.6993512,1.6993512 59.524896 0 1 0.874198,1.48557 v 6.65625 a 1.69935,1.69935 120.47512 0 1 -0.874198,1.48557 l -6.107073,3.39214 a 1.8003587,1.8003587 0 0 1 -1.748396,0 l -6.107073,-3.39214 a 1.69935,1.69935 59.524879 0 1 -0.874198,-1.48557 v -6.65625 a 1.6993512,1.6993512 120.4751 0 1 0.874198,-1.48557 l 6.107073,-3.392146 a 1.8003562,1.8003562 0 0 1 1.748396,0 z"
       id="path6" /><path
       d="m 44,100.60352 6.722656,3.73632 v 7.32032 L 44,115.39648 37.277344,111.66016 v -7.32032 z"
       id="path7" /></g><g
     transform="translate(-65,-34)"
     id="g6"><path
       d="M 43.832031,67.013672 A 1.0001,1.0001 0 0 0 43.513672,67.125 l -9,5 A 1.0001,1.0001 0 0 0 34,73 v 10 a 1.0001,1.0001 0 0 0 0.513672,0.875 l 9,5 a 1.0001,1.0001 0 0 0 0.972656,0 l 9,-5 A 1.0001,1.0001 0 0 0 54,83 V 73 a 1.0001,1.0001 0 0 0 -0.513672,-0.875 l -9,-5 A 1.0001,1.0001 0 0 0 43.832031,67.013672 Z M 44,69.144531 l 8,4.44336 v 8.824218 l -8,4.44336 -8,-4.44336 v -7.71289 L 43.513672,78.875 A 1,1 0 0 0 44.875,78.486328 1,1 0 0 0 44.486328,77.125 L 37.058594,73 Z"
       id="path8" /><path
       style="fill-opacity:0.25"
       d="m 44,68 9,5 v 10 l -9,5 -9,-5 V 73 Z"
       id="path9" /><path
       d="m 44,78 9,-5 v 10 l -9,5 -9,-5 V 73 Z"
       style="fill-opacity:0.25"
       id="path10" /></g><g
     transform="translate(-65,-34)"
     id="g7"><path
       d="M 43.832031,35.013672 A 1.0001,1.0001 0 0 0 43.513672,35.125 l -9,5 A 1.0001,1.0001 0 0 0 34,41 v 10 a 1.0001,1.0001 0 0 0 0.513672,0.875 l 9,5 a 1.0001,1.0001 0 0 0 0.972656,0 l 9,-5 A 1.0001,1.0001 0 0 0 54,51 V 41 a 1.0001,1.0001 0 0 0 -0.513672,-0.875 l -9,-5 A 1.0001,1.0001 0 0 0 43.832031,35.013672 Z M 44,37.144531 51.970703,41.572266 49.677734,42.845703 52,45.75 v 4.083984 l -4.806641,-5.607422 -1.935547,1.074219 5.142579,6 L 49.142578,52 44,46 36.029297,41.572266 Z M 36,43 46.478516,53.478516 44,54.855469 41.425781,53.425781 36,48 Z"
       id="path2" /><path
       style="fill-opacity:0.25"
       d="m 44,36 9,5 v 10 l -9,5 -9,-5 V 41 Z"
       id="path3" /><path
       style="fill-opacity:0.25"
       d="m 44,46 9,-5 v 10 l -9,5 -9,-5 V 41 Z"
       id="path4" /></g><g
     transform="translate(-65,-34)"
     id="g8"><path
       d="M 43.832031,1.0136719 A 1.0001,1.0001 0 0 0 43.513672,1.125 l -9,5 A 1.0001,1.0001 0 0 0 34,7 v 10 a 1.0001,1.0001 0 0 0 0.513672,0.875 l 9,5 a 1.0001,1.0001 0 0 0 0.972656,0 l 9,-5 A 1.0001,1.0001 0 0 0 54,17 V 7 A 1.0001,1.0001 0 0 0 53.486328,6.125 l -9,-5 A 1.0001,1.0001 0 0 0 43.832031,1.0136719 Z M 44,3.1445312 51.970703,7.5722656 44.875,11.513672 A 1.6995145,1.6995145 0 0 0 44,13 v 7.855469 l -8,-4.44336 V 7.5878906 Z"
       id="path1" /></g><g
     id="g19"
     transform="translate(-65)"><path
       d="m 82,4 a 1,1 0 0 0 -1,1 v 1 h -1 a 1,1 0 0 0 -1,1 1,1 0 0 0 1,1 h 1 v 1 a 1,1 0 0 0 1,1 1,1 0 0 0 1,-1 V 8 h 1 A 1,1 0 0 0 85,7 1,1 0 0 0 84,6 H 83 V 5 A 1,1 0 0 0 82,4 Z m -15,7 a 1.0001,1.0001 0 0 0 -1,1 v 10 a 1.0001,1.0001 0 0 0 1,1 h 10 a 1.0001,1.0001 0 0 0 1,-1 V 12 a 1.0001,1.0001 0 0 0 -1,-1 z m 1,2 h 8 v 8 h -8 z"
       id="path17" /><path
       style="fill-opacity:0.25"
       d="m 80,1 a 1,1 0 0 0 -1,1 1,1 0 0 0 1,1 h 6 v 6 a 1,1 0 0 0 1,1 1,1 0 0 0 1,-1 V 2 A 1.0001,1.0001 0 0 0 87,1 Z M 68,13 v 8 l 2,-2 v -4 h 4 l 2,-2 z"
       id="path18" /><path
       style="fill-opacity:0.5"
       d="m 67,1 a 1.0001,1.0001 0 0 0 -1,1 v 7 a 1,1 0 0 0 1,1 1,1 0 0 0 1,-1 V 3 h 8 v 6 a 1,1 0 0 0 1,1 1,1 0 0 0 1,-1 V 2 A 1.0001,1.0001 0 0 0 77,1 Z m 13,10 a 1,1 0 0 0 -1,1 1,1 0 0 0 1,1 h 6 v 8 h -6 a 1,1 0 0 0 -1,1 1,1 0 0 0 1,1 h 7 a 1.0001,1.0001 0 0 0 1,-1 V 12 a 1.0001,1.0001 0 0 0 -1,-1 z m -4,2 -2,2 v 4 h -4 l -2,2 h 8 z"
       id="path19" /><g
       id="path20"><path
         style="fill-opacity:0.25;stroke-linecap:round;stroke-linejoin:round;stroke-dashoffset:4;paint-order:fill markers stroke"
         d="M 82,5 V 9"
         id="path26" /></g><g
       id="path20-1"><path
         style="fill-opacity:0.25;stroke-linecap:round;stroke-linejoin:round;stroke-dashoffset:4;paint-order:fill markers stroke"
         d="M 84,7 H 80"
         id="path24" /></g></g><g
     transform="translate(-65,-34)"
     id="g23"><path
       d="M 79.474609,5 A 0.47458512,0.47458512 0 0 0 79.138672,5.8105469 L 80.457031,7.1289062 76.585938,11 H 67 a 1.0001,1.0001 0 0 0 -1,1 v 10 a 1.0001,1.0001 0 0 0 1,1 h 10 a 1.0001,1.0001 0 0 0 1,-1 v -9.585938 l 3.871094,-3.8710932 1.318359,1.3183593 A 0.47458514,0.47458514 0 0 0 84,9.5253906 V 5.8105469 A 0.8101687,0.8101687 0 0 0 83.189453,5 Z M 68,13 h 8 v 8 h -8 z"
       id="path21" /><path
       style="fill-opacity:0.25"
       d="m 68,13 h 8 l -2,2 h -4 v 4 l -2,2 z"
       id="path22" /><path
       style="fill-opacity:0.5"
       d="m 67,1 c -0.552262,5.52e-5 -0.999945,0.4477381 -1,1 v 7 c 0,0.552285 0.447715,1 1,1 0.552285,0 1,-0.447715 1,-1 V 3 h 18 v 18 h -6 c -0.552285,0 -1,0.447715 -1,1 0,0.552285 0.447715,1 1,1 h 7 c 0.552262,-5.5e-5 0.999945,-0.447738 1,-1 V 2 C 87.999945,1.4477381 87.552262,1.0000552 87,1 Z m 9,12 -2,2 v 4 h -4 l -2,2 h 8 z"
       id="path23" /></g></svg>
