<?xml version="1.0" encoding="UTF-8" standalone="no"?>
<svg
   viewBox="0 0 24 24"
   version="1.1"
   id="svg1"
   width="24"
   height="24"
   xml:space="preserve"
   xmlns="http://www.w3.org/2000/svg"
   xmlns:svg="http://www.w3.org/2000/svg"><defs
     id="defs1" /><g
     id="g48"
     transform="translate(-32,-66)"><path
       d="M 43.832031,67.013672 A 1.0001,1.0001 0 0 0 43.513672,67.125 l -9,5 A 1.0001,1.0001 0 0 0 34,73 v 10 a 1.0001,1.0001 0 0 0 0.513672,0.875 l 9,5 a 1.0001,1.0001 0 0 0 0.972656,0 l 9,-5 A 1.0001,1.0001 0 0 0 54,83 V 73 a 1.0001,1.0001 0 0 0 -0.513672,-0.875 l -9,-5 A 1.0001,1.0001 0 0 0 43.832031,67.013672 Z M 44,69.144531 l 8,4.44336 v 8.824218 l -8,4.44336 -8,-4.44336 v -7.71289 L 43.513672,78.875 A 1,1 0 0 0 44.875,78.486328 1,1 0 0 0 44.486328,77.125 L 37.058594,73 Z"
       id="path5" /><path
       style="fill-opacity:0.25"
       d="m 44,68 9,5 v 10 l -9,5 -9,-5 V 73 Z"
       id="path6" /><path
       d="m 44,78 9,-5 v 10 l -9,5 -9,-5 V 73 Z"
       style="fill-opacity:0.25"
       id="path7" /></g></svg>
