<?xml version="1.0" encoding="UTF-8" standalone="no"?>
<svg
   viewBox="0 0 24 24"
   version="1.1"
   id="svg1"
   width="24"
   height="24"
   xml:space="preserve"
   xmlns="http://www.w3.org/2000/svg"
   xmlns:svg="http://www.w3.org/2000/svg"><defs
     id="defs1" /><path
     d="m 5.7499998,2.5 c -2.77,0 -5.00000001,2.23 -5.00000001,5 v 9 c 0,2.77 2.23000001,5 5.00000001,5 H 18.25 c 2.77,0 5,-2.23 5,-5 v -9 c 0,-2.77 -2.23,-5 -5,-5 z m 3.5,2 H 18.25 c 1.662,0 3,1.338 3,3 v 9 c 0,1.662 -1.338,3 -3,3 H 9.2499998 c -1.662,0 -3,-1.338 -3,-3 v -9 c 0,-1.662 1.338,-3 3,-3 z m 4.6269532,3.25 c -0.483249,0 -0.875,0.3917508 -0.875,0.875 v 6.75 c 0,0.483249 0.391751,0.875 0.875,0.875 0.483249,0 0.875,-0.391751 0.875,-0.875 v -6.75 c 0,-0.4832492 -0.391751,-0.875 -0.875,-0.875 z"
     id="switch-true"
     style="display:inline" /></svg>
