<?xml version="1.0" encoding="UTF-8" standalone="no"?>
<!-- Created with Inkscape (http://www.inkscape.org/) -->

<svg
   width="48"
   height="48"
   viewBox="0 0 48 48"
   version="1.1"
   id="svg1"
   xmlns="http://www.w3.org/2000/svg"
   xmlns:svg="http://www.w3.org/2000/svg">
  <defs
     id="defs1" />
  <g
     id="layer2"
     style="display:none">
    <path
       style="opacity:1;fill:#ffffff;stroke:none;stroke-width:1.8;stroke-linecap:round;stroke-linejoin:round;stroke-dasharray:none;stroke-opacity:1"
       d="m 44.348395,15.608821 c 0.486469,-0.0973 1.556701,0.194589 1.459409,-0.29188 -0.0973,-0.48647 -1.920032,0.10764 -1.459409,0.29188 9.565926,3.826371 -3.724477,-3.701785 5.545754,1.751293 6.443967,3.790569 13.354915,6.913881 20.431726,9.340217 7.18985,2.46509 14.72478,5.64912 22.183021,7.005166 5.351167,0.972938 -0.972938,-0.648628 2.918817,0 2.125975,0.354327 4.202025,1.529353 6.421397,1.751288 1.08485,0.108492 3.566,-0.520347 4.37823,0.291884 1.34181,1.341807 0.29107,11.680987 0,13.718445 -1.01267,7.08871 -4.01267,13.788754 -5.83764,20.72361 -3.157241,11.997537 -5.887085,23.76606 -10.507741,35.317706 -1.350393,3.37598 -2.181091,6.78383 -3.210701,10.21585 -0.138235,0.4608 0.01227,3.19847 -0.291881,3.50258 -1.030717,1.03072 -3.139621,3.25003 -4.086346,4.67011 -0.459557,0.68934 -0.640438,2.09985 -1.167528,2.62694 -1.950956,1.95096 -13.108044,-2.00824 -15.177855,-2.33505 -5.937951,-0.93757 -11.913478,-0.9522 -17.804791,-2.04317 -4.269665,-0.79068 -8.550785,-0.65248 -12.8428,-1.16753 -6.762077,-0.81145 -13.231013,-2.58249 -19.847964,-4.08635 -1.773627,-0.4031 -5.6957696,-0.73377 -7.0051644,-2.04317 -0.045737,-0.0457 4.7462694,-12.33407 5.2538724,-13.71845 3.036936,-8.282546 3.182167,-17.820846 4.086347,-26.561239 0.820099,-7.927633 2.399991,-15.541505 3.794462,-23.350545 2.978489,-13.899613 -0.901451,5.599811 0.875646,-8.172694 0.507624,-3.934089 1.546649,-5.636373 2.626937,-9.340215 1.164382,-3.992169 1.233809,-8.212221 2.043173,-12.25904 0.213894,-1.069472 0.967582,-3.394573 1.459409,-4.378227 0.311258,-0.622518 1.522911,-1.789542 1.751291,-2.626935 0.06777,-0.248484 0.003,-4.6640162 0.875645,-2.91882"
       id="path106" />
    <path
       style="opacity:1;fill:#ffffff;stroke:none;stroke-width:1.8;stroke-linecap:round;stroke-linejoin:round;stroke-dasharray:none;stroke-opacity:1"
       d="m 42.448951,3.7904298 c 3.495095,1.584852 7.075403,3.228113 10.525971,4.953399 0.717607,0.358801 1.312694,0.956641 2.063916,1.23835 0.922312,0.3458662 1.951713,0.3177482 2.889485,0.6191752 0.997618,0.320662 1.891863,0.917685 2.889481,1.238347 2.72958,0.877365 6.059186,1.535985 8.874842,2.06392 2.038682,0.382251 4.153064,0.236919 6.191747,0.619174 5.651249,1.059607 10.920026,3.465625 16.304938,5.366182 1.369872,0.483484 2.865213,1.115933 4.334223,1.238348 3.983946,0.331995 18.349086,0.127311 19.607206,5.159793 1.03191,4.127642 -12.94272,4.926772 -15.06659,4.540613 C 99.615563,30.564347 98.348954,30.148927 96.93634,29.795775 94.86981,29.279143 92.625079,29.593976 90.538197,29.176598 86.082277,28.285415 81.464825,26.832734 77.122745,25.461549 76.555657,25.28247 73.738729,24.185857 72.99491,24.01681 69.712427,23.27079 66.09078,23.228969 62.881719,22.159285 58.67993,20.758686 54.437744,19.006857 50.291832,17.412276 45.661155,15.631247 41.246118,13.717522 36.876377,11.220527 c -0.123859,-0.07077 -4.71923,-1.2661262 -4.334224,-1.6511322 0.227654,-0.227654 1.795793,0.201248 1.857525,0.206391 3.626382,0.3021992 7.291,0.206393 10.938754,0.206393 0.332114,0 3.095876,0.8273722 3.095876,0.8255662 0,-0.206391 -0.416792,0.04048 -0.619174,0 -0.600979,-0.12019 -1.167908,-0.487308 -1.651133,-0.8255662 -1.512764,-1.058934 -3.086972,-3.181785 -4.953402,-3.71505 -0.2646,-0.07561 -0.579427,0.12307 -0.825565,0 -0.221865,-0.110935 -0.190919,-0.508243 -0.412782,-0.619175 -0.46863,-0.234314 -1.815227,-0.24869 -1.444743,-0.619174 0.327366,-0.327365 1.651237,0.225096 2.063916,0 0.653291,-0.356341 1.238352,-0.825568 1.857526,-1.23835 z"
       id="path108" />
    <path
       style="opacity:1;fill:none;stroke:#000000;stroke-width:1.8;stroke-linecap:round;stroke-linejoin:round;stroke-dasharray:none;stroke-opacity:1"
       d="m 78.197521,81.672515 c -0.482841,-0.173702 -0.270672,0.702871 0.245209,0.351153 1.131347,-0.771326 0.313913,-1.739762 1.516339,-0.571231 0.932786,0.906492 1.719958,2.042236 2.726515,2.859383 0.690066,0.560219 0.408752,0.14294 1.133918,0.577638 0.201818,0.120978 0.341406,0.338178 0.555758,0.435229 0.237803,0.107664 0.520558,0.03983 0.780837,0.05974 0.09761,0.0075 0.285347,0.120007 0.292814,0.0224 0.05728,-0.748747 -0.239292,-4.141544 -0.715212,-4.767229 -0.604758,-0.795063 -2.188332,-0.849976 -1.832083,-0.434699 0.728345,0.849036 1.520281,-3.236588 1.530219,-3.319134 0.145063,-1.204987 0.43042,-4.208613 0.215504,-5.383264 -0.03424,-0.187161 -0.451109,-0.519866 -0.465623,-0.330155 -0.0883,1.154179 1.954936,2.81908 2.696644,3.249807 1.199339,0.69648 1.300688,0.590397 2.500383,0.682182 0.585628,0.0448 1.171255,0.08961 1.756881,0.134412 0.308655,0.02361 1.144563,-0.03475 0.900844,-0.225613 -0.321774,-0.251989 -3.546741,-2.755799 -3.604956,-2.926588 -0.162693,-0.477273 0.004,-0.362524 -0.0304,-0.88592 -0.01628,-0.247975 -0.210543,-0.458957 -0.240541,-0.705645 -0.104385,-0.858195 -0.0088,-1.786986 0.0064,-2.650297 0.02417,-1.372896 -0.450284,-6.603636 -0.979212,-7.732743 -0.227024,-0.484639 -0.585978,-0.895704 -0.878967,-1.343555 -0.726828,-0.831023 -1.340726,-1.775513 -2.058217,-2.611897 -1.342504,-1.564966 -3.068883,-2.504355 -4.731405,-3.601834 -0.561205,-0.370466 -1.078972,-0.926216 -1.562201,-1.395823 -0.08437,-0.08199 -0.268904,-0.334922 -0.277879,-0.217613 -0.0013,0.01764 1.153062,-0.575986 1.824089,-0.744042 0.579924,-0.145239 1.69007,1.181385 0.781364,1.336084 -1.377249,0.234465 -2.0163,-0.89937 -3.131341,-1.417695 -1.005757,-0.467524 -1.852682,-0.174246 -2.852933,0.07626 -0.06232,0.01561 -1.507729,0.458652 -1.508875,0.473626 -0.0062,0.08161 0.342467,0.03772 0.570167,-1.036329 0.262985,-1.240496 0.137051,-2.897903 -1.330182,-3.145264 -0.381145,-0.06426 -1.922477,-0.357151 -2.252372,-0.07414 -0.388933,0.333655 -1.784461,2.962566 -2.266253,2.673759 -0.327578,-0.196364 -0.171586,-0.746905 -0.308276,-1.103535 -0.606846,-1.583291 -1.57929,-3.860547 -3.402807,-4.285606 -0.732627,-0.170774 -3.511863,1.381589 -4.36128,1.826235 -0.168565,0.08824 -0.140442,0.480142 -0.330152,0.465628 -0.290999,-0.02226 -0.193229,-0.553254 -0.330678,-0.810716 -0.285845,-0.535436 -0.615255,-1.047819 -0.961637,-1.546232 -0.263147,-0.378643 -2.702854,-3.220756 -3.019329,-2.881784 -1.459743,1.563501 -2.602516,3.133667 -2.182529,5.429129 0.224691,1.228056 0.720441,1.621164 1.585131,2.37935 0.404972,0.355092 1.046927,0.743465 0.916305,0.855521 -0.149746,0.128464 -0.68121,-0.464503 -1.209118,-0.877923 -1.26096,-0.98749 -2.95556,-1.796955 -4.56554,-1.920129 -2.979427,-0.227945 -5.725405,-1.039208 -8.468667,0.333866 -0.454141,0.227309 -1.263881,0.628253 -1.643815,0.954189 -0.645353,0.553631 -1.105053,1.531854 -1.913699,1.915312 -1.008948,0.478444 -1.919698,0.44768 -2.995343,0.654433 -0.651555,0.12524 -1.212613,0.299938 -1.884357,0.248546 -0.195209,-0.01494 -0.417706,0.05586 -0.585627,-0.04481 -0.188489,-0.112987 -2.193403,-2.128158 -2.185693,-2.228943 0.0075,-0.09761 0.250871,-0.06605 0.292815,0.0224 0.09886,0.20848 0.0465,0.45998 0.04533,0.69071 -0.0065,1.292527 -0.114254,2.52783 0.0016,3.829035 0.09921,1.114479 0.288722,2.287969 0.526942,3.378343 0.09218,0.421926 0.91874,1.807932 0.706689,2.312144 -0.21896,0.52064 -1.542162,1.132627 -1.996369,1.712634 -0.689598,0.880597 -1.034652,3.155196 -0.103489,3.919175 0.753991,0.618616 1.586543,1.324794 2.410771,1.853453 0.209174,0.134165 0.739315,0.109306 0.66083,0.345089 -0.233523,0.701545 -3.137719,2.161346 -3.767658,3.049779 -0.931282,1.313433 1.370448,1.451161 2.320634,1.74838 0.196959,0.0616 0.55495,0.445788 0.570692,0.240017 0.03278,-0.428473 -0.42318,0.5245 -1.441138,0.871517 -0.920592,0.313823 -1.636549,0.67101 -2.447054,1.187266 -0.0309,0.01968 -0.944729,-0.157987 -0.217611,0.277884 0.729807,0.43748 1.68627,0.233641 2.522783,0.389364 0.553766,0.103083 1.081987,0.322893 1.636876,0.419762 1.241544,0.216743 2.574789,0.232441 3.821511,0.09602 0.133738,-0.01463 0.528393,-0.100421 0.397887,-0.06773 -0.07078,0.01773 -0.273982,0.06721 -0.202678,0.08267 0.380719,0.08258 0.774645,0.08362 1.161967,0.125424"
       id="path119" />
  </g>
  <g
     id="layer3">
    <path
       id="rect91"
       style="font-variation-settings:normal;opacity:1;fill:#01002c;fill-opacity:1;stroke:#01002c;stroke-width:4;stroke-linecap:square;stroke-linejoin:round;stroke-miterlimit:4;stroke-dasharray:none;stroke-dashoffset:0;stroke-opacity:1;paint-order:stroke markers fill;stop-color:#000000;stop-opacity:1"
       d="M 4,4 V 44 H 38.166016 V 32 H 45 l -2,-8 2,-8 H 38.166016 V 4 Z" />
    <rect
       style="font-variation-settings:normal;opacity:1;vector-effect:none;fill:#1d3f45;fill-opacity:1;stroke:none;stroke-width:8.00001;stroke-linecap:square;stroke-linejoin:round;stroke-miterlimit:4;stroke-dasharray:none;stroke-dashoffset:0;stroke-opacity:1;-inkscape-stroke:none;paint-order:stroke markers fill;stop-color:#000000;stop-opacity:1"
       id="rect46"
       width="6.165535"
       height="40"
       x="32"
       y="4"
       ry="0"
       rx="0" />
    <rect
       style="font-variation-settings:normal;opacity:1;vector-effect:none;fill:#ffffff;fill-opacity:1;stroke:none;stroke-width:8;stroke-linecap:square;stroke-linejoin:round;stroke-miterlimit:4;stroke-dasharray:none;stroke-dashoffset:0;stroke-opacity:1;-inkscape-stroke:none;paint-order:stroke markers fill;stop-color:#000000;stop-opacity:1"
       id="rect3"
       width="2"
       height="36"
       x="34"
       y="6" />
    <path
       id="rect2"
       style="font-variation-settings:normal;opacity:1;vector-effect:none;fill:#abb2d1;fill-opacity:1;stroke:none;stroke-width:8.00002;stroke-linecap:square;stroke-linejoin:round;stroke-miterlimit:4;stroke-dasharray:none;stroke-dashoffset:0;stroke-opacity:1;-inkscape-stroke:none;paint-order:stroke markers fill;stop-color:#000000;stop-opacity:1"
       d="m 32,6 v 36 h 2 v -8 h 2 V 32 H 34 V 6 Z" />
    <rect
       style="font-variation-settings:normal;opacity:1;vector-effect:none;fill:#38865e;fill-opacity:1;stroke:none;stroke-width:8;stroke-linecap:square;stroke-linejoin:round;stroke-miterlimit:4;stroke-dasharray:none;stroke-dashoffset:0;stroke-opacity:1;-inkscape-stroke:none;paint-order:stroke markers fill;stop-color:#000000;stop-opacity:1"
       id="rect1"
       width="28"
       height="40"
       x="4"
       y="4" />
    <path
       id="rect4"
       style="font-variation-settings:normal;opacity:1;vector-effect:none;fill:#1d3f45;fill-opacity:1;stroke:none;stroke-width:8.00001;stroke-linecap:square;stroke-linejoin:round;stroke-miterlimit:4;stroke-dasharray:none;stroke-dashoffset:0;stroke-opacity:1;-inkscape-stroke:none;paint-order:stroke markers fill;stop-color:#000000;stop-opacity:1"
       d="M 30,6 V 42.056641 L 6,42 4,44 h 26 2 V 42.056641 4 Z" />
    <path
       style="font-variation-settings:normal;opacity:1;vector-effect:none;fill:#c1e4c5;fill-opacity:1;stroke:none;stroke-width:8.00001;stroke-linecap:square;stroke-linejoin:round;stroke-miterlimit:4;stroke-dasharray:none;stroke-dashoffset:0;stroke-opacity:1;-inkscape-stroke:none;paint-order:stroke markers fill;stop-color:#000000;stop-opacity:1"
       d="M 32,4 30,6 H 6 L 4,4 Z"
       id="path44" />
    <g
       id="g88"
       transform="translate(-1)">
      <path
         style="font-variation-settings:normal;opacity:1;vector-effect:none;fill:#1d3f45;fill-opacity:1;stroke:none;stroke-width:8.00001;stroke-linecap:square;stroke-linejoin:round;stroke-miterlimit:4;stroke-dasharray:none;stroke-dashoffset:0;stroke-opacity:1;-inkscape-stroke:none;paint-order:stroke markers fill;stop-color:#000000;stop-opacity:1"
         d="M 28,10 H 10 v 10 h 18 z"
         id="path88" />
      <rect
         style="font-variation-settings:normal;opacity:1;vector-effect:none;fill:#e4b862;fill-opacity:1;stroke:none;stroke-width:8.00001;stroke-linecap:square;stroke-linejoin:round;stroke-miterlimit:4;stroke-dasharray:none;stroke-dashoffset:0;stroke-opacity:1;-inkscape-stroke:none;paint-order:stroke markers fill;stop-color:#000000;stop-opacity:1"
         id="rect44"
         width="16"
         height="8"
         x="10"
         y="10" />
      <path
         id="rect45"
         style="font-variation-settings:normal;opacity:1;vector-effect:none;fill:#ffeebe;fill-opacity:1;stroke:none;stroke-width:8.00001;stroke-linecap:square;stroke-linejoin:round;stroke-miterlimit:4;stroke-dasharray:none;stroke-dashoffset:0;stroke-opacity:1;-inkscape-stroke:none;paint-order:stroke markers fill;stop-color:#000000;stop-opacity:1"
         d="m 10,10 v 8 l 2,-2 v -4 h 12 l 2,-2 z" />
    </g>
    <path
       style="font-variation-settings:normal;opacity:1;vector-effect:none;fill:#e8ce49;fill-opacity:1;stroke:none;stroke-width:8.00002;stroke-linecap:square;stroke-linejoin:round;stroke-miterlimit:4;stroke-dasharray:none;stroke-dashoffset:0;stroke-opacity:1;-inkscape-stroke:none;paint-order:stroke markers fill;stop-color:#000000;stop-opacity:1"
       d="m 34,16 h 11 l -1,4 H 34 Z"
       id="path59" />
    <path
       style="font-variation-settings:normal;opacity:1;vector-effect:none;fill:#ffffff;fill-opacity:1;stroke:none;stroke-width:8.00002;stroke-linecap:square;stroke-linejoin:round;stroke-miterlimit:4;stroke-dasharray:none;stroke-dashoffset:0;stroke-opacity:1;-inkscape-stroke:none;paint-order:stroke markers fill;stop-color:#000000;stop-opacity:1"
       d="m 44,20 -1,4 h -9 v -4 z"
       id="path67" />
    <path
       style="font-variation-settings:normal;opacity:1;vector-effect:none;fill:#02003f;fill-opacity:1;stroke:none;stroke-width:8.00002;stroke-linecap:square;stroke-linejoin:round;stroke-miterlimit:4;stroke-dasharray:none;stroke-dashoffset:0;stroke-opacity:1;-inkscape-stroke:none;paint-order:stroke markers fill;stop-color:#000000;stop-opacity:1"
       d="M 34,32 H 45 L 44,28 H 34 Z"
       id="path86" />
    <path
       style="font-variation-settings:normal;opacity:1;vector-effect:none;fill:#b873d0;fill-opacity:1;stroke:none;stroke-width:8.00002;stroke-linecap:square;stroke-linejoin:round;stroke-miterlimit:4;stroke-dasharray:none;stroke-dashoffset:0;stroke-opacity:1;-inkscape-stroke:none;paint-order:stroke markers fill;stop-color:#000000;stop-opacity:1"
       d="m 44,28 -1,-4 h -9 v 4 z"
       id="path87" />
  </g>
</svg>
