<?xml version="1.0" encoding="UTF-8" standalone="no"?>
<!-- Created with Inkscape (http://www.inkscape.org/) -->

<svg
   width="512"
   height="512"
   viewBox="0 0 135.46667 135.46667"
   version="1.1"
   id="svg1"
   xmlns:xlink="http://www.w3.org/1999/xlink"
   xmlns="http://www.w3.org/2000/svg"
   xmlns:svg="http://www.w3.org/2000/svg">
  <defs
     id="defs1">
    <linearGradient
       id="linearGradient132">
      <stop
         style="stop-color:#3f42ab;stop-opacity:0.73939394;"
         offset="0"
         id="stop132" />
      <stop
         style="stop-color:#3f42ab;stop-opacity:0;"
         offset="1"
         id="stop133" />
    </linearGradient>
    <linearGradient
       xlink:href="#linearGradient132"
       id="linearGradient133"
       x1="132.61356"
       y1="75.627502"
       x2="121.27141"
       y2="75.627502"
       gradientUnits="userSpaceOnUse" />
    <linearGradient
       xlink:href="#linearGradient132"
       id="linearGradient168"
       gradientUnits="userSpaceOnUse"
       x1="99.568748"
       y1="70.705795"
       x2="99.64222"
       y2="70.705795" />
  </defs>
  <g
     id="layer1"
     style="display:none;opacity:1;stroke:#000000;stroke-width:1.8;stroke-dasharray:none;stroke-opacity:1">
    <path
       style="opacity:1;fill:none;stroke:#ffffff;stroke-width:1.8;stroke-linecap:round;stroke-linejoin:round;stroke-dasharray:none;stroke-opacity:1"
       d="m 74.242985,74.902189 c 8.12242,-8.822177 11.850039,-14.172912 24.884993,-14.172912 0.633886,0 4.570182,-0.516535 4.614442,-0.494403 0.93355,0.466776 -0.0268,2.087825 0,3.131225 0.10297,4.015867 0.56362,8.015766 0.6592,12.030493 0.0202,0.846378 -0.36028,4.71787 0.16481,5.768046"
       id="path3" />
    <path
       style="opacity:1;fill:none;stroke:#ffffff;stroke-width:1.8;stroke-linecap:round;stroke-linejoin:round;stroke-dasharray:none;stroke-opacity:1"
       d="m 103.74242,97.315164 c 0.23896,3.503386 -0.4968,6.938436 -0.98881,10.382486 -0.0976,0.68299 -0.75433,9.41912 -0.98881,9.88808 -0.2211,0.44221 -0.98881,0 -1.48321,0 -1.617797,0 -2.763072,0.12653 -4.284836,0.824 -3.602795,1.65129 -6.856532,4.19405 -10.217679,6.26245 -1.548763,0.95309 -4.874001,4.23745 -6.756853,3.29603 -0.417272,-0.20864 0.106273,-2.50898 0.164801,-2.80162"
       id="path4" />
    <path
       style="opacity:1;fill:none;stroke:#ffffff;stroke-width:1.8;stroke-linecap:round;stroke-linejoin:round;stroke-dasharray:none;stroke-opacity:1"
       d="m 79.022222,76.055799 c -2.035863,12.973028 2.06906,25.930081 0.988806,38.893111 -0.1701,2.04121 -0.824005,4.04142 -0.824005,6.09764"
       id="path5" />
    <path
       style="opacity:1;fill:none;stroke:#ffffff;stroke-width:1.8;stroke-linecap:round;stroke-linejoin:round;stroke-dasharray:none;stroke-opacity:1"
       d="m 79.022222,127.96821 c -2.433992,0.1404 -4.725445,2.56338 -7.251258,2.14242 -0.665938,-0.11099 -0.85271,-0.34874 -1.318411,-0.65921 -0.01796,-0.012 -1.720749,-0.40878 -1.977615,-0.4944"
       id="path6" />
    <path
       style="opacity:1;fill:none;stroke:#ffffff;stroke-width:1.8;stroke-linecap:round;stroke-linejoin:round;stroke-dasharray:none;stroke-opacity:1"
       d="m 65.673316,131.09943 c -1.530295,-8.97381 0.449569,-18.04091 0.824008,-27.02741 0.185896,-4.461548 -0.07587,-8.90858 -0.329605,-13.348907 -0.277402,-4.854578 0,-9.797656 0,-14.667314 3.217631,0.393107 5.738945,1.544031 8.569669,0 1.165132,-0.635527 1.261371,-0.275722 -0.494403,-1.15361"
       id="path7" />
    <path
       style="opacity:1;fill:none;stroke:#ffffff;stroke-width:1.8;stroke-linecap:round;stroke-linejoin:round;stroke-dasharray:none;stroke-opacity:1"
       d="m 74.737388,76.055799 c 0.94905,-0.344991 1.969606,-0.53534 2.847149,-1.034968 1.991373,-1.133785 6.056355,-6.316449 7.807653,-8.27378 3.91141,-4.371576 8.437705,-8.36227 13.75079,-10.954018 2.46605,-1.202951 5.00463,-2.306677 7.69112,-2.913303 1.0993,-0.248229 3.97535,-0.472755 4.89435,-0.932256 -2.29603,4.562679 -3.02274,9.518388 -3.96209,14.449982 -0.64695,3.396486 -1.46321,6.664042 -1.74798,10.138294 -0.13011,1.587282 0,3.185211 0,4.777816 0,2.252955 -0.1323,4.509797 0,6.758863 0.11487,1.95276 0.51884,3.878802 0.69919,5.826606 0.52715,5.693264 0.93226,11.412745 0.93226,17.130225 -3.35028,0.60914 -1.88932,0.1608 -5.12742,1.51492 -6.286247,2.62879 -12.3036,5.32568 -18.062476,8.97297 -1.610884,1.02023 -3.268861,1.75139 -4.894349,2.68024 -0.742635,0.42436 -1.556718,1.0425 -1.514918,1.04879 0.375485,0.0565 0.757571,-0.0531 1.136356,-0.0796"
       id="path8" />
    <path
       style="opacity:1;fill:none;stroke:#ffffff;stroke-width:1.8;stroke-linecap:round;stroke-linejoin:round;stroke-dasharray:none;stroke-opacity:1"
       d="M 63.018024,73.156317 C 62.046924,72.88441 61.032733,72.735265 60.10472,72.340594 49.116276,67.667345 56.328611,69.521387 43.673694,65.115601 37.262953,62.883713 30.057981,61.852703 23.280573,61.852703 21.890249,67.37685 20.340025,73.028125 20.017674,78.74986 c -0.166055,2.947473 0.03012,5.904447 0,8.856441 -0.04861,4.763832 -0.08063,9.459812 0,14.216919 0.03348,1.97534 0.104929,4.06602 0,6.05967 -0.0093,0.17654 -0.359439,1.7283 -0.233064,1.98105 0.731428,1.46285 10.493039,4.81948 10.720954,4.89435 6.338184,2.08188 12.808471,3.75645 19.111267,5.94313 4.734942,1.64274 7.73121,2.60939 11.53668,5.24395 1.503933,1.04118 1.617442,3.12769 2.680238,4.54475 0.38757,0.51676 1.220747,0.42407 1.839567,0.60931"
       id="path9" />
    <path
       style="opacity:1;fill:none;stroke:#ffffff;stroke-width:1.8;stroke-linecap:round;stroke-linejoin:round;stroke-dasharray:none;stroke-opacity:1"
       d="m 110.82887,99.457583 c -3.8702,1.054617 -7.22834,-3.365736 -8.81686,-6.262449 -0.94792,-1.72855 -2.218023,-3.613341 -1.73042,-5.685647 0.16002,-0.680109 0.3213,-0.748001 0.74161,-1.318409 1.23402,-1.674741 2.64136,-2.184667 4.20243,-3.378427 0.6967,-0.53277 2.49202,-2.371818 3.54323,-1.977615 0.83703,0.313888 2.54842,1.47796 3.21362,2.060017 0.35007,0.306308 0.48766,0.779428 0.90641,0.988806"
       id="path10" />
    <path
       style="opacity:1;fill:none;stroke:#ffffff;stroke-width:1.8;stroke-linecap:round;stroke-linejoin:round;stroke-dasharray:none;stroke-opacity:1"
       d="m 102.01201,93.195134 c 0.10986,-0.19227 0.11715,-0.514321 0.3296,-0.576805 0.64065,-0.188431 1.96516,0.388352 2.63682,0.494403 0.33168,0.05237 1.02414,0.116644 1.40081,0.0824 0.11278,-0.01027 0.28054,-0.184473 0.3296,-0.0824 0.11355,0.236244 0.006,0.5242 0.009,0.786302"
       id="path11" />
    <path
       style="opacity:1;fill:none;stroke:#ffffff;stroke-width:1.8;stroke-linecap:round;stroke-linejoin:round;stroke-dasharray:none;stroke-opacity:1"
       d="m 100.28159,87.509487 c 0.3296,0.357068 0.54759,0.867571 0.98881,1.07121 0.35003,0.161552 0.77001,-0.04404 1.15361,-0.0824 0.71531,-0.07153 1.43111,-0.143108 2.14242,-0.247203 0.35529,-0.05199 2.06129,-0.647766 1.45195,-0.178665"
       id="path12" />
    <path
       style="opacity:1;fill:none;stroke:#ffffff;stroke-width:1.8;stroke-linecap:round;stroke-linejoin:round;stroke-dasharray:none;stroke-opacity:1"
       d="m 103.02643,84.304438 c 0.69237,0.624403 7.2651,0.765521 2.93806,0.716036"
       id="path13" />
    <path
       style="opacity:1;fill:none;stroke:#ffffff;stroke-width:1.8;stroke-linecap:round;stroke-linejoin:round;stroke-dasharray:none;stroke-opacity:1"
       d="m 23.813787,91.959122 c 0.25533,-1.768597 1.667912,-2.50403 2.966423,-3.460827 1.192894,-0.878975 2.085781,-2.241994 3.296028,-3.048823 0.518035,-0.345357 4.816414,-1.360953 5.438441,-1.153609 0.30389,0.101295 1.086115,1.487601 1.318411,1.812814 1.687957,2.363139 2.224818,3.718438 2.224818,6.674453 0,0.858811 0.127315,1.907765 -0.247203,2.719221 -0.236096,0.51154 -0.622589,0.836496 -0.988809,1.236008 -0.516136,0.56306 -0.981768,1.224418 -1.565611,1.730415 -0.584438,0.506513 -0.855451,0.4879 -1.483212,0.906407 -1.057849,0.705239 -2.012466,1.297999 -3.213626,1.730419 -0.811631,0.29219 -3.998026,1.68762 -4.861637,0.824"
       id="path14" />
    <path
       style="opacity:1;fill:none;stroke:#ffffff;stroke-width:1.8;stroke-linecap:round;stroke-linejoin:round;stroke-dasharray:none;stroke-opacity:1"
       d="m 38.810705,95.502351 c -2.546636,-1.757202 -3.947621,1.565613 -6.344849,1.565613"
       id="path15" />
    <path
       style="opacity:1;fill:none;stroke:#ffffff;stroke-width:1.8;stroke-linecap:round;stroke-linejoin:round;stroke-dasharray:none;stroke-opacity:1"
       d="m 38.465418,88.916456 c -0.08099,-0.09859 -2.068824,1.260311 -3.197942,1.806657 -1.140518,0.551865 -2.36955,0.931341 -3.543226,1.40081"
       id="path16" />
    <path
       style="opacity:1;fill:none;stroke:#ffffff;stroke-width:1.8;stroke-linecap:round;stroke-linejoin:round;stroke-dasharray:none;stroke-opacity:1"
       d="m 36.83309,86.108677 c -0.02747,-0.05493 -0.02537,-0.187611 -0.0824,-0.164801 -0.673764,0.269507 -1.246158,0.74668 -1.895213,1.071207 -2.094733,1.047367 -4.345003,2.013718 -6.344851,3.213627"
       id="path17" />
    <path
       style="opacity:1;fill:none;stroke:#ffffff;stroke-width:1.8;stroke-linecap:round;stroke-linejoin:round;stroke-dasharray:none;stroke-opacity:1"
       d="m 26.69781,101.9296 c -0.714139,-0.35707 -1.541536,-0.54543 -2.142417,-1.07121 -0.735644,-0.64368 -2.294656,-7.277277 -2.389619,-7.828057 -0.0023,-0.01339 -0.397411,-2.898617 -0.247202,-3.048826 0.08206,-0.08206 0.172375,0.09718 0.247202,-0.0824 0.288867,-0.693282 0.329603,-1.056251 0.329603,-1.730415 -1.738376,0.298195 -2.803378,-2.306714 -4.532036,-1.812812 -0.573372,0.163821 -1.215476,0.630548 -1.730413,0.906407 -3.099107,1.660236 -4.385501,2.131213 -5.108841,5.603244 -0.333892,1.602685 -0.964745,3.188089 -0.741605,4.861638 0.07653,0.573968 0.468176,1.189165 0.659205,1.730414 1.095114,3.102827 1.578117,3.609667 3.955231,5.273647 0.65353,0.45747 -0.039,0.26298 0.824006,0.5768 1.357998,0.49382 2.686223,0.5823 4.120033,0.74161 1.033718,0.11486 2.075793,0.47032 3.131225,0.3296 0.992199,-0.13229 4.887095,-3.42638 4.779237,-3.54323 -0.331702,-0.35934 -0.769073,-0.60427 -1.153609,-0.90641"
       id="path18" />
    <path
       style="opacity:1;fill:none;stroke:#ffffff;stroke-width:1.8;stroke-linecap:round;stroke-linejoin:round;stroke-dasharray:none;stroke-opacity:1"
       d="m 107.24522,100.32825 c 0.3214,1.40922 1.00618,3.18434 2.26912,4.05868 1.99268,1.37954 4.28306,1.11475 6.5258,0.81572 5.48511,-0.73135 9.71545,-3.62256 10.25482,-9.555636 0.30015,-3.301582 0.11289,-6.300028 -1.39838,-9.322567 -0.92279,-1.845585 -5.35214,-4.926452 -7.57459,-5.243946 -0.88576,-0.126537 -1.91405,0 -2.79677,0 -0.88655,0 -1.69259,-0.233064 -2.56371,-0.233064 -0.31075,0 -1.02012,-0.298072 -0.93225,0 0.21288,0.722149 0.63548,1.365075 0.95322,2.047616"
       id="path19" />
    <path
       style="opacity:1;fill:none;stroke:#ffffff;stroke-width:1.8;stroke-linecap:round;stroke-linejoin:round;stroke-dasharray:none;stroke-opacity:1"
       d="m 111.96151,80.847437 c 0.0777,0.427284 0.11376,0.864272 0.23307,1.281853 0.13066,0.457309 0.53682,0.369213 0.69919,0.815724 0.24855,0.683519 0.61558,1.513591 0.81573,2.21411 0.81852,2.864821 0.86157,5.60565 0.34959,8.506846 -0.069,0.391025 0.0966,0.577049 -0.11653,0.932257 -0.26999,0.44999 -0.79196,0.8324 -1.04879,1.281853 -0.44226,0.773951 -1.06129,1.797979 -1.28185,2.680237 -0.0471,0.188423 0.0869,0.408946 0,0.582663 -0.1258,0.251598 -0.52867,0.194532 -0.78305,0.314603"
       id="path20" />
    <path
       style="opacity:1;fill:none;stroke:#ffffff;stroke-width:1.8;stroke-linecap:round;stroke-linejoin:round;stroke-dasharray:none;stroke-opacity:1"
       d="m 31.559447,101.1056 c 3.578217,0.804 1.853324,0.10202 4.889254,1.99947 2.388026,1.49252 4.889256,3.08671 6.758863,5.24395 0.438658,0.50614 0.810514,1.16011 1.281853,1.63145 0.357071,0.35707 0.926494,-0.40289 1.398387,-0.58266 1.694269,-0.64544 3.693675,-1.11075 5.477009,-1.39839 0.937461,-0.1512 7.458054,-0.62338 7.458054,-1.74798 -1.124799,-6.500454 -0.815724,-13.126511 -0.815724,-19.693928 0,-0.732268 -0.298155,-2.356363 0.349597,-2.680239"
       id="path21" />
    <path
       style="opacity:1;fill:none;stroke:#ffffff;stroke-width:1.8;stroke-linecap:round;stroke-linejoin:round;stroke-dasharray:none;stroke-opacity:1"
       d="m 58.35674,83.877271 c -1.965216,-0.931852 -3.456175,-2.53718 -5.243946,-3.729027 -1.154779,-0.769853 -1.300105,-0.604039 -2.447174,-1.281853 -1.572786,-0.929373 -2.966524,-2.150317 -4.195156,-3.495964 -0.372251,-0.407702 -0.677421,-0.873347 -1.04879,-1.281853 -0.05226,-0.05748 -0.198321,0.06949 -0.233064,0 -0.933823,-1.867644 -0.488132,-1.638784 -2.21411,-2.21411 -3.911289,1.628157 -7.599361,4.063246 -11.653211,5.360478 -1.623094,0.519391 -3.34113,0.641866 -5.010881,0.932257 -0.983677,0.171075 -1.917698,0.466129 -2.913303,0.466129"
       id="path22" />
    <path
       style="opacity:1;fill:none;stroke:#ffffff;stroke-width:1.8;stroke-linecap:round;stroke-linejoin:round;stroke-dasharray:none;stroke-opacity:1"
       d="m 26.78021,88.498293 c -0.467353,0.129955 -0.925938,0.297041 -1.402059,0.389861 -0.120566,0.0235 0.101292,-0.227711 0.116532,-0.349597 0.07709,-0.616707 0,-1.24301 0,-1.864513 0,-2.023137 -0.155718,-4.06022 0.233064,-6.05967 0.16005,-0.823114 0.38844,-1.63145 0.582661,-2.447177 4.026423,1.237951 7.435489,3.182304 10.546157,6.059672 1.715533,1.586869 3.032067,3.555346 5.127413,4.603019 0.233064,0.116532 0.46273,-0.240123 0.699192,-0.349596 0.828555,-0.383591 1.646768,-0.796692 2.505441,-1.107056 0.452558,-0.163575 3.605312,-0.984947 4.253422,-1.107055 0.6937,-0.130697 1.402731,-0.16688 2.097578,-0.29133 1.602551,-0.287024 3.166342,-0.748995 4.719551,-1.223587 1.061165,-0.324245 1.277075,-0.258614 2.097578,-0.873991"
       id="path23" />
    <path
       style="opacity:1;fill:none;stroke:#ffffff;stroke-width:1.8;stroke-linecap:round;stroke-linejoin:round;stroke-dasharray:none;stroke-opacity:1"
       d="m 49.442033,86.26618 c 0.241642,-1.685927 -0.596955,-0.81584 -1.456653,-1.63145 -1.397875,-1.326189 -2.41804,-2.865961 -4.078623,-3.903826 -0.563208,-0.352004 -1.0776,-0.644448 -1.689716,-0.87399 -0.329478,-0.123555 -0.669499,-0.112985 -0.990524,-0.29133 -0.957815,-0.53212 -1.888048,-1.104305 -2.79677,-1.747981 -0.680357,-0.481922 -1.478428,-0.934024 -2.097577,-1.398386 -0.1671,-0.125325 -0.01347,-0.07694 -0.05827,-0.1748 -0.136851,-0.299005 -0.288317,-0.591105 -0.432472,-0.886658"
       id="path24" />
    <path
       style="opacity:1;fill:none;stroke:#ffffff;stroke-width:1.8;stroke-linecap:round;stroke-linejoin:round;stroke-dasharray:none;stroke-opacity:1"
       d="m 34.192096,82.042817 c -0.06352,0.203623 -0.39924,0.566674 -0.190569,0.610867 0.102516,0.02172 1.257194,-0.704027 1.456653,-0.815724 3.223231,-1.805011 -1.75864,1.010714 1.922777,-0.932256 1.022692,-0.539753 2.007481,-1.149329 3.029837,-1.689717 2.104787,-1.11253 4.124153,-2.359514 6.409266,-3.0881 0.758598,-0.241872 1.702816,-0.159742 2.447174,-0.407863"
       id="path25" />
    <path
       style="opacity:1;fill:none;stroke:#ffffff;stroke-width:1.8;stroke-linecap:round;stroke-linejoin:round;stroke-dasharray:none;stroke-opacity:1"
       d="m 91.043997,38.25495 c 0.385808,1.498015 1.322512,2.753085 1.74798,4.253421 0.474658,1.673788 0.381104,2.953321 0.407864,4.719552 0.0034,0.223137 0.05093,1.121815 -0.05827,1.514917 -0.310309,1.117116 -1.0219,2.137519 -1.45665,3.204634 -0.3043,0.746916 -0.656773,1.72921 -0.815724,2.563706 -0.01564,0.0821 0.03206,0.595485 0,0.58266 -0.577556,-0.231023 -0.912244,-1.762516 -0.990523,-1.981046 -1.401453,-3.912386 -2.353345,-7.978661 -2.68024,-12.11934 -0.07344,-0.930183 -0.233063,-1.861079 -0.233063,-2.79677"
       id="path26" />
    <path
       style="opacity:1;fill:none;stroke:#ffffff;stroke-width:1.8;stroke-linecap:round;stroke-linejoin:round;stroke-dasharray:none;stroke-opacity:1"
       d="m 90.869195,54.51118 c 1.315307,0.259456 0.219908,5.26148 0.430723,5.558893 0.133405,0.188204 0.292095,0.357145 0.438142,0.535718"
       id="path27" />
    <path
       style="opacity:1;fill:none;stroke:#ffffff;stroke-width:1.8;stroke-linecap:round;stroke-linejoin:round;stroke-dasharray:none;stroke-opacity:1"
       d="m 57.10365,64.437307 c 0.472186,0.427011 0.514995,1.178319 0.906407,1.648013 1.280903,1.537086 3.782819,1.554691 5.520843,1.153609 1.179301,-0.272147 2.203656,-1.210894 3.460827,-1.07121 1.423323,0.158149 2.288944,1.814846 3.790428,1.648013 1.10363,-0.122624 2.163498,-0.824553 2.884025,-1.648013 0.212413,-0.242755 0.281302,-0.610904 0.494403,-0.824005"
       id="path28" />
    <path
       style="opacity:1;fill:none;stroke:#ffffff;stroke-width:1.8;stroke-linecap:round;stroke-linejoin:round;stroke-dasharray:none;stroke-opacity:1"
       d="m 89.703877,60.221254 c -0.558924,0.04874 -1.096729,-0.157652 -1.63145,-0.291331"
       id="path29" />
    <path
       style="opacity:1;fill:none;stroke:#ffffff;stroke-width:1.8;stroke-linecap:round;stroke-linejoin:round;stroke-dasharray:none;stroke-opacity:1"
       d="m 88.94642,43.324097 c 1.356553,3.156204 -0.964729,6.503971 -3.2629,8.448577 -0.843587,0.713803 -1.959382,1.233895 -2.913303,1.806249 -0.629621,0.377773 -1.371529,0.983809 -2.097577,1.165321 -1.139804,0.284951 -3.610359,0.584086 -4.661286,-0.116533 -1.008258,-0.672172 -1.578102,-1.902254 -2.155844,-2.913304 -0.138091,-0.241659 -0.374613,-0.416253 -0.524393,-0.640926 -0.5807,-0.871046 -1.372529,-1.822535 -1.747983,-2.855037 -0.629402,-1.730854 -0.835517,-3.60371 -1.514917,-5.30221 -0.496186,-1.240465 3.25606,-2.928393 3.787293,-3.204634 2.026063,-1.053552 4.593789,-1.573183 6.875394,-1.573183 0.877334,0 2.018347,-0.189315 2.796773,0.349597 0.354917,0.245713 0.682347,0.656524 0.99052,0.932256 0.601319,0.538023 1.373257,0.83102 2.09758,1.165321 0.232775,0.107436 0.515559,0.210698 0.757457,0.29133 0.110554,0.03685 0.46265,-0.02826 0.349597,0 -0.173718,0.04343 -0.3496,0.07769 -0.524399,0.116533"
       id="path30" />
    <path
       style="opacity:1;fill:none;stroke:#ffffff;stroke-width:1.8;stroke-linecap:round;stroke-linejoin:round;stroke-dasharray:none;stroke-opacity:1"
       d="m 70.62871,44.682862 c -1.176231,-0.283927 -1.91552,-1.544905 -3.182466,-1.591829 -1.086766,-0.04025 -2.097268,0.372841 -3.146367,0.582661 -0.522346,0.104468 -1.107056,0.300127 -1.107056,0.87399"
       id="path31" />
    <path
       style="opacity:1;fill:none;stroke:#ffffff;stroke-width:1.8;stroke-linecap:round;stroke-linejoin:round;stroke-dasharray:none;stroke-opacity:1"
       d="m 63.717217,40.876921 c 0.328329,3.548911 -0.02707,2.94631 -1.981047,5.651809 -0.743603,1.029605 -1.293145,2.488174 -2.388909,3.204633 -1.091213,0.713486 -3.568864,1.147414 -4.952614,1.573184 -1.117036,0.343702 -3.751056,1.274508 -4.952614,0.87399 -1.151498,-0.383831 -2.00652,-1.290331 -2.796772,-2.155843 -1.957269,-2.143676 -2.978605,-4.37587 -4.311687,-6.875397 -0.182404,-0.342005 -1.133827,-1.362689 -0.75746,-1.864513 0.687935,-0.917247 5.686192,-3.247239 6.700597,-3.55423 2.18133,-0.660138 3.874648,-0.691245 6.05967,-0.757457 2.470824,-0.07487 5.333185,-0.653209 7.691119,0.40786 0.218184,0.09819 1.741295,1.449965 2.039313,1.747983"
       id="path32" />
    <path
       style="opacity:1;fill:none;stroke:#ffffff;stroke-width:1.8;stroke-linecap:round;stroke-linejoin:round;stroke-dasharray:none;stroke-opacity:1"
       d="m 74.933433,45.916937 c 0.314429,-0.503055 0.619697,-1.000223 0.96139,-1.485786 0.362765,-0.515509 0.684287,-0.643636 1.340118,-0.524394 0.388302,0.0706 0.784084,0.49249 1.107056,0.699193 0.503949,0.322527 1.044845,0.646089 1.34012,1.194454 0.107775,0.200157 0.195691,0.416689 0.233063,0.640926 0.08243,0.494591 0.158137,2.168369 0,2.563707 -0.179324,0.448307 -1.010454,0.656259 -1.398386,0.75746 -0.884801,0.230817 -1.727832,0.308131 -2.621971,0.11653 -0.200054,-0.04287 -0.207372,0.0059 -0.378729,-0.11653 -0.307404,-0.219575 -0.599729,-0.569055 -0.815727,-0.873993 -0.337603,-0.476615 -0.42382,-0.917316 -0.320463,-1.485784"
       id="path33" />
    <path
       style="opacity:1;fill:none;stroke:#ffffff;stroke-width:1.8;stroke-linecap:round;stroke-linejoin:round;stroke-dasharray:none;stroke-opacity:1"
       d="m 72.89412,46.120867 c 0.378955,-0.547113 0.863471,-1.049766 1.369253,-1.485784 0.453102,-0.390604 0.918861,-0.779893 1.456651,-1.048789 2.035683,-1.017842 4.607499,-0.691584 6.758863,-0.29133 0.604803,0.112522 2.650577,0.61047 2.942436,1.340119"
       id="path34" />
    <path
       style="opacity:1;fill:none;stroke:#ffffff;stroke-width:1.8;stroke-linecap:round;stroke-linejoin:round;stroke-dasharray:none;stroke-opacity:1"
       d="m 58.35674,45.042944 c -0.694087,-0.555268 -0.705456,-0.64738 -1.71885,-0.96139 -1.214696,-0.376383 -3.822745,-0.142994 -5.040013,-0.11653 -0.660194,0.01434 -1.320697,0 -1.981047,0 -0.307575,0 -0.744601,-0.06341 -1.048789,0.05827 -0.315683,0.126272 -0.674381,0.66611 -0.873991,0.932257 -0.126851,0.169135 -0.553526,0.596312 -0.553526,0.844857"
       id="path35" />
    <path
       style="opacity:1;fill:none;stroke:#ffffff;stroke-width:1.8;stroke-linecap:round;stroke-linejoin:round;stroke-dasharray:none;stroke-opacity:1"
       d="m 53.345857,47.19879 c -0.802568,-0.362474 0.971765,-1.941372 1.42752,-2.155846 0.407255,-0.191648 1.101902,-0.565526 1.573183,-0.436994 0.170773,0.04658 0.443966,0.151241 0.58266,0.262197 0.588849,0.471077 1.677985,2.099286 1.42752,2.913303 -0.05861,0.190468 -0.376126,0.620062 -0.436996,0.699193 -0.914186,1.188443 -2.93429,1.473476 -4.13689,0.582661 -0.291119,-0.215644 -1.310987,-0.928029 -1.310987,-1.25272"
       id="path36" />
    <path
       style="opacity:1;fill:none;stroke:#ffffff;stroke-width:1.8;stroke-linecap:round;stroke-linejoin:round;stroke-dasharray:none;stroke-opacity:1"
       d="M 46.645261,50.024694 C 45.96549,49.81105 45.312716,49.474379 44.60595,49.383767 c -0.324927,-0.04166 -0.349596,1.025247 -0.349596,1.981046 0,2.97919 -0.699194,5.89076 -0.699194,8.856441 0,1.232458 0.114404,2.207011 0.46613,3.37943 0.140364,0.467878 0.07671,1.105593 0.349597,1.514917 0.121885,0.182832 0.666924,0.555373 0.466127,0.466129 -0.382305,-0.169915 -0.77688,-0.310753 -1.16532,-0.466129"
       id="path37" />
    <path
       style="opacity:1;fill:none;stroke:#ffffff;stroke-width:1.8;stroke-linecap:round;stroke-linejoin:round;stroke-dasharray:none;stroke-opacity:1"
       d="m 48.121977,62.294888 c -1.278033,1.295472 -2.59946,2.599463 -3.872828,3.872831 -0.05827,0.05827 -0.05091,0.311999 0,0.247203 0.210225,-0.267581 0.393242,-0.555461 0.589865,-0.833192"
       id="path38" />
    <path
       style="opacity:1;fill:none;stroke:#ffffff;stroke-width:1.8;stroke-linecap:round;stroke-linejoin:round;stroke-dasharray:none;stroke-opacity:1"
       d="m 51.253202,66.002918 c -0.685644,-0.205457 -1.262447,0.812109 -1.48321,1.400813 -0.111641,0.297706 -0.0824,0.598043 -0.0824,0.906406 0,0.05493 -0.02413,0.214149 0,0.164801 0.158713,-0.324524 0.273356,-0.668805 0.410038,-1.00321"
       id="path39" />
    <path
       style="opacity:1;fill:none;stroke:#ffffff;stroke-width:1.8;stroke-linecap:round;stroke-linejoin:round;stroke-dasharray:none;stroke-opacity:1"
       d="m 88.94642,43.324097 c 0.135954,-0.46613 0.673579,-0.991994 0.407861,-1.398386 -0.255972,-0.391489 -0.938462,-0.03136 -1.398384,-0.116531 -0.592942,-0.109805 -1.183357,-0.254394 -1.747983,-0.46613 -3.964882,-1.486831 -8.090871,-4.295465 -10.021761,-8.157247"
       id="path40" />
    <path
       style="opacity:1;fill:none;stroke:#ffffff;stroke-width:1.8;stroke-linecap:round;stroke-linejoin:round;stroke-dasharray:none;stroke-opacity:1"
       d="m 76.186151,33.185803 c -0.271907,-0.116533 -0.628394,-0.578553 -0.815724,-0.349596 -0.347861,0.425164 -0.139726,1.090099 -0.233063,1.63145 -0.10096,0.58556 -0.205484,1.171522 -0.349597,1.74798 -0.357055,1.428224 -1.076349,2.613988 -1.63145,3.962093 -0.112636,0.273545 -0.271759,0.53032 -0.349596,0.815724 -0.0511,0.187378 0.19422,0.58266 0,0.58266 -0.626341,0 -0.628079,-1.083929 -0.932257,-1.63145 -0.408099,-0.734576 -0.972323,-1.373272 -1.398384,-2.097577 -0.430712,-0.732208 -0.479896,-2.111343 -1.04879,-2.68024 -0.0824,-0.0824 0.03533,0.238551 0,0.349597 -0.238479,0.749506 -0.567002,1.467943 -0.815726,2.21411 -0.403662,1.210987 -0.753237,2.487713 -1.048787,3.729029 -0.111289,0.467408 -0.0098,1.73813 -0.349597,1.398384 -1.631085,-1.631082 -0.932256,-8.82387 -0.932256,-11.65321"
       id="path41" />
    <path
       style="opacity:1;fill:none;stroke:#ffffff;stroke-width:1.8;stroke-linecap:round;stroke-linejoin:round;stroke-dasharray:none;stroke-opacity:1"
       d="m 66.16566,34.930347 c -0.321915,0.730882 -1.17149,1.047866 -1.632719,1.634887 -0.757698,0.964342 -3.545459,6.908913 -5.943137,5.710073 -0.456975,-0.228486 0.109148,-1.019257 0.233063,-1.514917 0.718003,-2.872007 3.502866,-5.92243 2.447174,-9.089506 -0.231005,-0.693018 -4.718196,3.571653 -5.243944,4.078626 -1.926259,1.857462 -3.881959,3.634846 -5.710073,5.59354 -1.172279,1.256012 -2.964053,3.958752 -4.544754,4.661284 -0.732096,0.325377 -1.922676,0.275151 -2.680237,0.233066 -1.610918,-0.08949 -0.930777,-0.117324 0.425143,-0.843605"
       id="path42" />
    <path
       style="opacity:1;fill:none;stroke:#ffffff;stroke-width:1.8;stroke-linecap:round;stroke-linejoin:round;stroke-dasharray:none;stroke-opacity:1"
       d="m 45.77127,46.004334 c -0.271909,0.233063 -0.611878,0.404746 -0.815723,0.699193 -0.524701,0.757902 -0.330248,1.728632 -1.04879,2.447176 -0.997275,0.997273 -2.554901,1.380776 -3.146367,2.563704"
       id="path43" />
    <path
       style="opacity:1;fill:none;stroke:#ffffff;stroke-width:1.8;stroke-linecap:round;stroke-linejoin:round;stroke-dasharray:none;stroke-opacity:1"
       d="m 71.194159,59.040064 c -0.563753,0.725331 -1.363911,0.752983 -2.142416,0.947607 -0.285437,0.07136 -0.605337,0.218671 -0.824007,0"
       id="path46" />
    <path
       style="opacity:1;fill:none;stroke:#ffffff;stroke-width:1.8;stroke-linecap:round;stroke-linejoin:round;stroke-dasharray:none;stroke-opacity:1"
       d="M 66.044119,60.111272 C 65.261034,59.936938 64.027917,59.743085 63.572101,59.287266"
       id="path47" />
    <path
       style="opacity:1;fill:none;stroke:#ffffff;stroke-width:1.8;stroke-linecap:round;stroke-linejoin:round;stroke-dasharray:none;stroke-opacity:1"
       d="m 93.156801,44.708807 c 0.42478,0.121449 0.907767,0.11775 1.274342,0.364347 0.292938,0.197062 0.304538,1.390161 0.329602,1.565614 0.174974,1.224822 0.390948,2.418466 0.659206,3.625627 0.174303,0.784366 0.174318,1.61715 0.412002,2.389619 0.218167,0.709044 1.45516,1.489215 1.812813,2.142416 0.250466,0.45743 0.481696,0.925132 0.722543,1.3877"
       id="path48" />
    <path
       style="opacity:1;fill:none;stroke:#ffffff;stroke-width:1.8;stroke-linecap:round;stroke-linejoin:round;stroke-dasharray:none;stroke-opacity:1"
       d="m 95.495371,57.858135 c -1.094624,-1.113498 -2.11563,-2.287439 -2.794643,-3.720909 -0.04703,-0.09929 0.0968,-0.277627 0,-0.329602 -0.468313,-0.251471 -1.01255,-0.323974 -1.518827,-0.48596"
       id="path49" />
    <path
       style="opacity:1;fill:none;stroke:#ffffff;stroke-width:1.8;stroke-linecap:round;stroke-linejoin:round;stroke-dasharray:none;stroke-opacity:1"
       d="m 40.129116,44.825951 c -0.130617,5.175816 -1.411235,10.108144 -3.213627,14.914518 -0.269571,0.718857 -0.816568,0.771649 -1.236009,1.400812 -0.242493,0.363741 -0.398491,1.368108 -0.47226,1.774288"
       id="path50" />
    <path
       style="opacity:1;fill:none;stroke:#ffffff;stroke-width:1.8;stroke-linecap:round;stroke-linejoin:round;stroke-dasharray:none;stroke-opacity:1"
       d="m 43.949186,55.440204 c -2.195174,2.34203 -2.326159,5.234958 -3.325667,8.090696 -0.229548,0.655852 -0.459537,1.312055 -0.659204,1.977615 -0.179555,0.598514 0.09904,0.403685 -0.247203,0.576805"
       id="path51" />
    <path
       style="opacity:1;fill:none;stroke:#ffffff;stroke-width:1.8;stroke-linecap:round;stroke-linejoin:round;stroke-dasharray:none;stroke-opacity:1"
       d="m 83.76074,20.017674 c 3.933288,-1.072179 6.295478,-2.086601 5.243944,-6.292735"
       id="path52" />
    <path
       style="opacity:1;fill:none;stroke:#ffffff;stroke-width:1.8;stroke-linecap:round;stroke-linejoin:round;stroke-dasharray:none;stroke-opacity:1"
       d="m 89.004684,13.724939 c 0.263991,3.4366 1.889797,7.322561 -1.398384,9.788698"
       id="path53" />
    <path
       style="opacity:1;fill:none;stroke:#ffffff;stroke-width:1.8;stroke-linecap:round;stroke-linejoin:round;stroke-dasharray:none;stroke-opacity:1"
       d="m 83.760738,20.017674 c -0.38844,0 -0.804662,0.144263 -1.165321,0 -0.896133,-0.358455 -2.17538,-3.466569 -1.74798,-4.428221 0.163748,-0.368431 0.803003,-0.984162 1.16532,-1.165321 -1.334725,0.340346 -2.57318,0.720274 -3.729026,1.514918 -0.800483,0.550332 -3.227412,3.752685 -2.21411,4.42822"
       id="path54" />
    <path
       style="opacity:1;fill:none;stroke:#ffffff;stroke-width:1.8;stroke-linecap:round;stroke-linejoin:round;stroke-dasharray:none;stroke-opacity:1"
       d="m 78.446904,83.877138 c -0.170923,4.5e-5 -0.348549,-0.04725 -0.51277,1.33e-4 -1.532491,0.442224 -2.973411,1.355148 -4.544753,1.747983 -1.422935,0.355735 -2.97928,0.401542 -4.42822,0.58266 -1.005123,0.12564 -1.93475,-0.233704 -2.916666,-0.232704"
       id="path55" />
    <path
       style="opacity:1;fill:none;stroke:#ffffff;stroke-width:1.8;stroke-linecap:round;stroke-linejoin:round;stroke-dasharray:none;stroke-opacity:1"
       d="m 66.167719,90.723113 c 3.618669,2.373244 8.921408,3.586972 12.730257,2.018123"
       id="path56" />
    <path
       style="opacity:1;fill:none;stroke:#ffffff;stroke-width:1.8;stroke-linecap:round;stroke-linejoin:round;stroke-dasharray:none;stroke-opacity:1"
       d="m 80.187868,111.27748 c -0.557025,0.0726 -1.13865,0.0388 -1.671074,0.21791 -0.625883,0.21054 -1.154734,0.64222 -1.74798,0.93225 -2.3539,1.1508 -4.704427,2.19315 -7.224993,2.91331 -2.302725,0.65792 -4.934506,0 -6.991927,0"
       id="path57" />
    <path
       style="opacity:1;fill:none;stroke:#ffffff;stroke-width:1.8;stroke-linecap:round;stroke-linejoin:round;stroke-dasharray:none;stroke-opacity:1"
       d="m 79.42469,118.61995 c -1.561171,0.0755 -2.216118,1.62733 -3.471603,2.198 -1.90769,0.86714 -4.124531,0.33155 -6.05967,0.11654 -1.536729,-0.17075 -3.170179,0.13514 -4.731879,0.0694"
       id="path58" />
    <path
       style="opacity:1;fill:none;stroke:#ffffff;stroke-width:1.8;stroke-linecap:round;stroke-linejoin:round;stroke-dasharray:none;stroke-opacity:1"
       d="m 86.440977,33.884994 c -3.027944,-0.07839 -5.386173,-2.999803 -6.001403,-5.768337 -0.08398,-0.377897 -0.311198,-1.475183 -0.116531,-1.864515 0.09203,-0.184066 0.116531,-0.06463 0.116531,-0.233065 1.13684,0.131174 1.65108,0.100624 2.68024,0.524395 1.813646,0.746796 3.343999,3.002275 3.55423,4.894349 0.0039,0.03482 0.184939,1.707418 0.174798,1.747982 -0.06544,0.261763 -0.27191,0.466127 -0.407865,0.699191 z"
       id="path60" />
    <path
       style="opacity:1;fill:none;stroke:#ffffff;stroke-width:1.8;stroke-linecap:round;stroke-linejoin:round;stroke-dasharray:none;stroke-opacity:1"
       d="m 86.292387,29.997786 c -0.280643,0.01389 -0.59119,0.168465 -0.84193,0.04165 -0.124979,-0.06321 0.147986,-0.238345 0.233063,-0.349597 0.992963,-1.29849 3.398047,-3.438464 4.894347,-4.020359 0.246894,-0.09601 0.806839,-0.09876 0.93226,-0.349596 0,0.701474 -0.03092,0.890608 0.05827,1.514919 0.146742,1.027196 0.524989,2.094008 0.349596,3.146367 -0.147243,0.883459 -0.370162,1.381972 -0.815725,2.155844 -0.71544,1.242606 -1.43811,1.699647 -2.796771,2.039312 -1.030835,0.257709 -0.95107,0.456032 -1.864516,-0.291332"
       id="path61" />
    <path
       style="opacity:1;fill:none;stroke:#ffffff;stroke-width:1.8;stroke-linecap:round;stroke-linejoin:round;stroke-dasharray:none;stroke-opacity:1"
       d="m 88.305496,34.176327 c 0.175578,1.75946 -0.233561,3.691059 -1.107059,5.243943 -0.141552,0.251651 -0.467688,0.813644 -0.640927,0.582661 -0.04805,-0.06406 -0.06623,-0.312746 -0.05827,-0.233064 0.02733,0.273304 0.07769,0.543817 0.116533,0.815724"
       id="path62" />
    <path
       style="opacity:1;fill:none;stroke:#ffffff;stroke-width:1.8;stroke-linecap:round;stroke-linejoin:round;stroke-dasharray:none;stroke-opacity:1"
       d="m 86.440975,33.884994 c -0.213641,0.07769 -0.442788,0.121616 -0.640924,0.233066 -0.81442,0.458113 -1.864514,3.102097 -1.864514,4.020357 0,0.407863 0,0.815726 0,1.223587 0,0.03884 -0.03865,0.112667 0,0.116533 0.19422,0.01942 0.38844,-0.03885 0.582658,-0.05827"
       id="path63" />
    <path
       style="opacity:1;fill:none;stroke:#ffffff;stroke-width:1.8;stroke-linecap:round;stroke-linejoin:round;stroke-dasharray:none;stroke-opacity:1"
       d="m 83.658675,43.594676 c 0.102528,0.05336 0.192447,0.17018 0.307586,0.160067 1.156033,-0.101531 2.275983,-0.690692 3.42932,-0.835575"
       id="path64" />
    <path
       style="opacity:1;fill:none;stroke:#ffffff;stroke-width:1.8;stroke-linecap:round;stroke-linejoin:round;stroke-dasharray:none;stroke-opacity:1"
       d="m 77.666881,42.999451 c 0.188886,-0.832816 1.108138,-1.407526 1.108138,-2.293531"
       id="path65" />
    <path
       style="opacity:1;fill:none;stroke:#ffffff;stroke-width:1.8;stroke-linecap:round;stroke-linejoin:round;stroke-dasharray:none;stroke-opacity:1"
       d="M 53.668456,43.882471 C 53.550044,43.592694 53.509685,43.256848 53.313218,43.013137 53.164205,42.828292 51.706761,42.541335 51.418005,42.436333 50.892344,42.245184 50.656407,41.760444 50.316024,41.34305"
       id="path66" />
    <path
       style="opacity:1;fill:none;stroke:#ffffff;stroke-width:1.8;stroke-linecap:round;stroke-linejoin:round;stroke-dasharray:none;stroke-opacity:1"
       d="m 89.623005,19.666006 c 1.493491,-0.0096 6.319829,0.24647 7.032955,-0.466655 0.443135,-0.443134 0.970587,-1.300189 1.318411,-1.648013 1.435785,1.794731 1.452977,1.112726 1.318411,3.131225 -0.08259,1.238849 -0.636094,2.127009 -1.648013,2.801622 -0.0674,0.04493 -0.988808,0.320205 -0.988808,0.329602 0,0.03713 5.932849,0.877552 5.932849,-0.494404"
       id="path68" />
    <path
       style="opacity:1;fill:none;stroke:#ffffff;stroke-width:1.8;stroke-linecap:round;stroke-linejoin:round;stroke-dasharray:none;stroke-opacity:1"
       d="m 102.58881,23.319383 c 0.3296,0.604271 0.8077,1.14875 0.98881,1.812815 0.005,0.0197 -4.079574,0.873152 -5.438448,0.329602 -2.195629,-0.878252 -2.836034,1.716838 -3.460827,2.966422 -0.472141,0.944279 -1.829398,1.055055 -2.760352,1.552948"
       id="path69" />
    <path
       style="opacity:1;fill:none;stroke:#ffffff;stroke-width:1.8;stroke-linecap:round;stroke-linejoin:round;stroke-dasharray:none;stroke-opacity:1"
       d="m 94.678343,28.428222 c -0.431753,1.619081 -0.767424,1.278845 0.988809,1.236012 0.278923,-0.0068 3.855476,-0.410149 4.284834,-0.164801 0.303714,0.173548 0.555114,1.709438 0.824004,2.224817 0.83986,1.609725 1.73076,2.060356 2.80163,3.131225 0.15477,0.154773 0.72987,-0.576805 0.98881,-0.576805 -0.21974,0.43947 -0.41543,0.891805 -0.65921,1.31841 -0.76754,1.343189 -1.73712,2.47094 -2.63682,3.708029 -0.1884,0.259052 -0.30822,0.563355 -0.49441,0.824007 -0.0677,0.09483 -0.3296,0.164801 -0.2472,0.247202 0.15081,0.150813 0.27368,-0.217748 0.0824,0.164801 0.38454,0.219735 0.81338,0.375674 1.15361,0.659205 0.17012,0.141766 0.21974,0.384537 0.32961,0.576805 0.1648,0.164801 0.31352,0.347435 0.4944,0.494404 1.23486,1.00332 2.66081,1.977615 4.28483,1.977615 -3.53329,1.521614 -7.399375,1.882433 -11.041686,3.131225 -1.234508,0.42326 -1.821349,0.505023 -2.690383,1.362467"
       id="path70" />
    <path
       style="opacity:1;fill:none;stroke:#ffffff;stroke-width:1.8;stroke-linecap:round;stroke-linejoin:round;stroke-dasharray:none;stroke-opacity:1"
       d="m 95.831953,47.380374 c 0.659206,-0.164804 1.304083,-0.584211 1.977617,-0.494406 0.372189,0.04963 1.393545,4.735642 1.483209,5.273643 0.100971,0.605819 -0.104685,1.378524 0.329605,1.812814 0.02588,0.02588 1.089416,0.183301 0.988806,0.329602 -0.39522,0.574741 -0.978807,0.994003 -1.468213,1.491006"
       id="path71" />
    <path
       style="opacity:1;fill:none;stroke:#ffffff;stroke-width:1.8;stroke-linecap:round;stroke-linejoin:round;stroke-dasharray:none;stroke-opacity:1"
       d="m 38.432533,55.1963 c -2.240391,-0.233727 -2.652395,-2.359475 -3.000256,-4.2727 -0.144102,-0.792576 -0.658942,-2.390056 -0.164801,-3.213624 0.260694,-0.434488 0.747588,-0.662795 1.15361,-0.906407 0.542753,-0.325652 1.224275,-0.643504 1.895216,-0.494406 0.782695,0.173935 1.058113,0.971219 1.621821,1.406779"
       id="path72" />
    <path
       style="opacity:1;fill:none;stroke:#ffffff;stroke-width:1.8;stroke-linecap:round;stroke-linejoin:round;stroke-dasharray:none;stroke-opacity:1"
       d="m 93.156801,44.708807 c 1.913154,-1.572953 4.465643,-4.437213 6.959989,-1.94287 0.0483,0.04825 0.94546,1.344573 0.98881,1.648013 0.21588,1.51116 -1.425899,6.004518 -1.812823,7.745661"
       id="path73" />
    <path
       style="opacity:1;fill:none;stroke:#ffffff;stroke-width:1.8;stroke-linecap:round;stroke-linejoin:round;stroke-dasharray:none;stroke-opacity:1"
       d="m 76.06962,20.36727 c -1.08836,-3.247794 -3.94137,-3.614385 -6.11147,-5.617554 -1.585346,-1.463396 -2.918859,-3.248461 -4.449635,-4.7792375 -0.43947,0.8240065 -0.887565,1.6434705 -1.31841,2.4720195 -1.143295,2.198646 -2.183662,4.325719 -1.812814,6.921654 0.08934,0.62541 1.752369,3.938698 1.153609,2.142417 -3.280329,-2.879613 -8.404866,-3.818471 -8.404866,-9.064071 -1.358184,-0.534628 -9.956243,9.592558 -6.592052,7.910462 -5.772014,0.817244 -4.820908,-3.323806 -8.240065,-5.603244 -0.04914,3.708148 -1.010059,7.429289 -1.812814,11.041687 -0.220785,0.99353 -0.659205,1.791585 -0.659205,2.801622 -1.153609,-0.604271 -2.411637,-1.04135 -3.460828,-1.812814 -0.845537,-0.621719 -1.385315,-1.580401 -2.142416,-2.307218 -1.509406,-1.44903 -4.365614,-2.633579 -5.108841,-4.120033 0.43947,0.659205 0.94558,1.278557 1.318411,1.977616 0.414428,0.777052 0.04796,4.009273 0.164801,4.944039 0.181416,1.451331 1.004493,2.707404 1.31841,4.120032 0.274671,1.23602 0.298457,4.449635 1.977616,4.449635 2.534141,0.182137 4.68028,-1.337567 2.142417,0.988808 -0.578328,0.530133 -1.518608,1.143164 -2.307218,1.31841 -1.959538,0.435453 -5.148585,0.204546 -6.592052,1.648013 2.972196,2.400729 5.08964,5.869966 8.240065,8.075264 0.301892,0.211325 0.988807,0.125897 0.988807,0.494404 0,0.219735 -0.858025,0.09356 -0.659205,0 0.512348,-0.241105 1.043741,-0.43947 1.565611,-0.659205"
       id="path74" />
    <path
       style="opacity:1;fill:none;stroke:#ffffff;stroke-width:1.8;stroke-linecap:round;stroke-linejoin:round;stroke-dasharray:none;stroke-opacity:1"
       d="m 33.372263,47.874777 c -1.875189,-0.627793 -4.454596,-0.02212 -6.26245,0.494403 -0.922464,0.263562 -1.749706,0.788326 -2.636821,1.15361 -1.455028,0.599127 -8.563198,2.089639 -2.966423,3.955229 0.950617,0.316873 2.732171,-0.320913 3.460827,-0.494403 4.175079,-0.994066 3.022361,-1.576522 6.592051,1.483212 1.723009,1.476865 0.924946,0.398608 1.648015,1.483212"
       id="path75" />
    <path
       style="opacity:1;fill:none;stroke:#ffffff;stroke-width:1.8;stroke-linecap:round;stroke-linejoin:round;stroke-dasharray:none;stroke-opacity:1"
       d="m 31.559447,54.466828 c -0.659204,0.329602 -1.474737,0.450011 -1.977615,0.988809 -0.296733,0.317928 -1.766782,15.22554 -1.103403,6.597142"
       id="path76" />
    <path
       style="opacity:1;fill:none;stroke:#ffffff;stroke-width:1.8;stroke-linecap:round;stroke-linejoin:round;stroke-dasharray:none;stroke-opacity:1"
       d="m 56.249352,16.072442 c -0.907645,-0.580626 -0.766389,0.207977 0.592469,-2.930163 0.523978,-1.210068 1.737058,-1.503994 2.563706,-2.330642 0.148807,-0.148805 1.200465,-1.5408171 1.281854,-1.3983856 0.341778,0.5981096 2.204227,6.4092666 2.680239,6.4092666 0.217067,0 -0.366463,-0.241376 -0.571934,-0.311374"
       id="path77" />
    <path
       style="opacity:1;fill:none;stroke:#ffffff;stroke-width:1.8;stroke-linecap:round;stroke-linejoin:round;stroke-dasharray:none;stroke-opacity:1"
       d="m 68.261409,13.002753 c 2.045205,-0.792385 4.058274,-1.680173 5.827165,-3.0068409 1.312532,-0.9843982 3.23279,-3.2316769 2.563707,-5.127413 -0.139838,-0.3962093 -0.447096,-0.7126592 -0.699194,-1.048789 -0.365434,-0.4872464 -0.311756,-0.195225 -0.58266,-0.4661286 -0.03884,-0.038844 -0.141099,-0.1656664 -0.11653,-0.1165321 1.033711,2.0674264 1.924256,4.1902726 3.146367,6.176202 1.889625,3.0706406 3.5013,4.4584646 -0.116534,6.5257986"
       id="path78" />
    <path
       style="opacity:1;fill:none;stroke:#ffffff;stroke-width:1.8;stroke-linecap:round;stroke-linejoin:round;stroke-dasharray:none;stroke-opacity:1"
       d="m 45.072077,28.64105 c -1.865646,1.096878 -5.422532,6.401689 -4.42822,8.390313 0.279781,0.559557 5.404768,-2.841064 5.94314,-3.379433 0.431027,-0.431027 0.862438,-0.931915 0.932256,-0.699193 0.112173,0.373915 0.05486,0.779846 0.116531,1.165323 0.119398,0.746236 1.28283,6.707209 2.563707,5.826604 1.506505,-1.035722 2.653194,-2.715919 3.845559,-4.078623 0.144283,-0.164894 0.588413,-0.599914 0.699194,-0.932257 0.02747,-0.0824 -0.188802,-0.281244 -0.116533,-0.233064 0.484804,0.323202 0.932256,0.699193 1.398386,1.04879"
       id="path79" />
    <path
       style="opacity:1;fill:none;stroke:#ffffff;stroke-width:1.8;stroke-linecap:round;stroke-linejoin:round;stroke-dasharray:none;stroke-opacity:1"
       d="m 75.370427,28.407987 c 1.910673,2.547564 -1.087384,-1.472955 2.563707,3.612494 0.453083,0.631078 0.946832,1.232341 1.398386,1.864513 0.325618,0.455869 0.592741,0.952773 0.932257,1.398386 0.416486,0.546637 1.398384,2.202138 1.398384,1.514917 0,-1.305935 0.288993,-2.406822 0.116533,-3.729027 -0.05124,-0.392805 -0.06914,-0.804695 -0.233064,-1.16532 -0.05083,-0.111826 -0.408871,-0.0089 -0.349596,-0.116533 0.141372,-0.256598 0.469212,-0.350935 0.70382,-0.526404"
       id="path80" />
    <path
       style="opacity:1;fill:none;stroke:#ffffff;stroke-width:1.8;stroke-linecap:round;stroke-linejoin:round;stroke-dasharray:none;stroke-opacity:1"
       d="m 60.10472,72.340594 c 2.319819,-0.357931 2.959677,3.957468 2.913304,0.815723"
       id="path81" />
    <path
       style="opacity:1;fill:none;stroke:#ffffff;stroke-width:1.8;stroke-linecap:round;stroke-linejoin:round;stroke-dasharray:none;stroke-opacity:1"
       d="m 77.205807,47.213355 c -0.12532,0.224962 -0.07945,0.495269 -0.101965,0.742892 -0.01818,0.199983 -0.08531,0.389128 -0.174797,0.568095 -0.08785,0.175705 -0.652102,0.837872 -0.87399,0.699193 -0.109818,-0.06863 -0.131159,-0.134141 -0.189365,-0.262197 -0.433625,-0.953973 -0.411027,-1.596641 -0.320463,-2.592839 0.04006,-0.440645 0.0172,-0.796089 0.29133,-1.179889 0.0056,-0.0079 0.02352,-0.0079 0.02913,0 0.08095,0.114287 0.15966,0.230317 0.233064,0.349597 0.08207,0.133358 0.15898,0.269912 0.233063,0.407863 0.05095,0.09488 0.327819,0.652703 0.364165,0.757457 0.08218,0.236876 0.100166,0.559107 0.145663,0.786593"
       id="path82" />
    <path
       style="opacity:1;fill:none;stroke:#ffffff;stroke-width:1.8;stroke-linecap:round;stroke-linejoin:round;stroke-dasharray:none;stroke-opacity:1"
       d="m 56.113497,47.082257 c 0.245224,0.776097 0.177305,1.599253 -0.349597,2.243243 -0.0045,0.0055 -0.05224,0.07936 -0.0874,0.05827 -0.315449,-0.18927 -0.524044,-2.278343 -0.49526,-2.76764 0.01318,-0.224213 0.114742,-0.395329 0.145664,-0.611793 0.0034,-0.02344 5.29e-4,-0.524941 -0.116533,-0.407861"
       id="path83" />
    <path
       style="opacity:1;fill:none;stroke:#ffffff;stroke-width:1.8;stroke-linecap:round;stroke-linejoin:round;stroke-dasharray:none;stroke-opacity:1"
       d="m 87.563501,44.119225 c -1.786242,0.333709 -2.138132,2.089807 -3.336634,3.225229 -1.134364,1.074661 -2.893017,1.51388 -4.311687,2.039313 -0.236767,0.08769 -0.473363,0.178414 -0.699193,0.29133 -0.03474,0.01738 0.03881,0.114914 0,0.116533 -0.233063,0.0097 -0.46613,-0.01942 -0.699193,-0.02913"
       id="path84" />
    <path
       style="opacity:1;fill:none;stroke:#ffffff;stroke-width:1.8;stroke-linecap:round;stroke-linejoin:round;stroke-dasharray:none;stroke-opacity:1"
       d="m 47.69405,44.955549 c -0.03884,0.01942 -0.131781,0.0176 -0.116533,0.05826 0.254006,0.677334 0.89512,1.530753 1.398387,1.981044 1.276612,1.142233 2.052481,1.24028 3.495963,0.815727"
       id="path85" />
    <path
       style="opacity:1;fill:none;stroke:#ffffff;stroke-width:1.8;stroke-linecap:round;stroke-linejoin:round;stroke-dasharray:none;stroke-opacity:1"
       d="m 33.207462,55.95004 c 0.614283,-0.130024 1.264087,-0.633548 1.842855,-0.390073 0.358047,0.150625 0.05493,0.780786 0,1.165323 -0.49471,3.462959 -2.09758,6.462292 -2.09758,10.021761"
       id="path96" />
    <path
       style="opacity:1;fill:none;stroke:#ffffff;stroke-width:1.8;stroke-linecap:round;stroke-linejoin:round;stroke-dasharray:none;stroke-opacity:1"
       d="m 35.432277,50.9236 c -0.70998,0.302447 -1.671227,0.286755 -2.129943,0.90734 -0.517223,0.699744 -0.33822,5.536534 -0.349597,5.826607 -0.0723,1.843598 -0.233063,3.628824 -0.233063,5.47701 0,0.122835 -0.228338,0.298725 -0.116533,0.349594 0.222049,0.101026 0.476718,0.103859 0.715076,0.155789"
       id="path97" />
    <path
       style="opacity:1;fill:none;stroke:#ffffff;stroke-width:1.8;stroke-linecap:round;stroke-linejoin:round;stroke-dasharray:none;stroke-opacity:1"
       d="m 33.302334,51.83094 c -0.621504,0.427284 -1.473602,0.63685 -1.864514,1.281854 -0.845722,1.395444 -0.58266,5.413137 -0.58266,7.10846 0,0.583953 -0.354372,1.402651 0.116533,1.74798 0.564701,0.414115 1.165321,0.776883 1.747981,1.165323"
       id="path98" />
    <path
       style="opacity:1;fill:none;stroke:#ffffff;stroke-width:1.8;stroke-linecap:round;stroke-linejoin:round;stroke-dasharray:none;stroke-opacity:1"
       d="m 31.43782,53.112794 c -1.35701,3.004809 -1.504672,2.943304 -2.21411,5.47701 -0.117096,0.418205 -0.647583,1.152316 -0.233063,1.281853 0.603552,0.188608 1.243007,0.233063 1.864513,0.349597"
       id="path99" />
    <path
       style="opacity:1;fill:none;stroke:#ffffff;stroke-width:1.8;stroke-linecap:round;stroke-linejoin:round;stroke-dasharray:none;stroke-opacity:1"
       d="m 97.80957,46.885968 c 0.953442,0.852226 1.311122,2.919349 1.91607,4.129249 0.01712,0.03422 0.65091,0.724215 0.46613,0.815723 -0.285925,0.141598 -0.599329,0.219112 -0.898993,0.328671"
       id="path100" />
    <path
       style="opacity:1;fill:none;stroke:#ffffff;stroke-width:1.8;stroke-linecap:round;stroke-linejoin:round;stroke-dasharray:none;stroke-opacity:1"
       d="m 101.1056,44.41395 c -0.43817,0.321588 -0.28806,7.158061 -0.33117,7.183927 -0.17937,0.107622 -0.38844,0.155374 -0.58266,0.233063"
       id="path101" />
    <path
       style="opacity:1;fill:none;stroke:#ffffff;stroke-width:1.8;stroke-linecap:round;stroke-linejoin:round;stroke-dasharray:none;stroke-opacity:1"
       d="M 72.248907,76.810771 C 71.422124,76.048353 71.644533,74.896529 71.194159,73.995782"
       id="path102" />
    <path
       style="opacity:1;fill:none;stroke:#ffffff;stroke-width:1.8;stroke-linecap:round;stroke-linejoin:round;stroke-dasharray:none;stroke-opacity:1"
       d="m 65.920519,18.787348 c 0.151251,3.590388 -0.122934,7.346688 0.741606,10.876886 0.159102,0.649663 0.419097,1.270934 0.659204,1.895213 0.03555,0.09243 0.109868,0.329604 0.164801,0.247203 0.984271,-1.476407 1.45933,-6.57256 1.812814,-8.487267 0.117369,-0.63575 0.331816,-2.536716 0.412003,-1.895215 0.239808,1.918462 -0.142528,-0.637805 0.164801,3.296026 0.07112,0.910268 0.159473,1.822171 0.329605,2.719222 0.132871,0.700593 0.375595,1.37591 0.576802,2.060017 0.246203,0.837086 0.443765,1.292942 0.576805,1.071208 1.017963,-1.696604 1.511774,-5.879008 2.636822,-7.004056 0.381582,-0.381582 0.261546,1.047373 0.412004,1.565613 0.1768,0.608976 0.262191,1.262241 0.576805,1.812814 0.106431,0.186258 0.293004,0.672897 0.412001,0.494404 0.476313,-0.714471 2.962563,-5.855594 2.719223,-6.180049 -0.10822,-0.144293 -0.470196,0.458092 -0.494405,0.494404"
       id="path103" />
    <path
       style="opacity:1;fill:none;stroke:#ffffff;stroke-width:1.8;stroke-linecap:round;stroke-linejoin:round;stroke-dasharray:none;stroke-opacity:1"
       d="m 57.762854,22.742579 c 0.0824,0.659205 0.218344,1.313907 0.247203,1.977615 0.05369,1.234843 -0.03744,2.472587 0,3.708028 0.01754,0.579149 0.123518,1.152472 0.164801,1.730415 0.01566,0.219175 0.109019,0.84999 0,0.659204 -0.817936,-1.431388 -0.530273,-4.552774 -0.741606,-6.180047 -0.147132,-1.132924 -0.317209,-2.265874 -0.576805,-3.378427 -0.126376,-0.541614 -0.127016,-1.238493 -0.576805,-1.565612 -0.260001,-0.189093 -0.227939,0.601413 -0.329602,0.906407 -0.337855,1.013561 -0.638866,2.039372 -0.988809,3.048824 -0.428117,1.234955 -1.649164,4.433365 -2.142416,5.768045 -0.175329,0.474422 -0.408281,1.402673 -0.576805,1.318411 -0.979,-0.489501 -1.408887,-2.755617 -1.730412,-3.625629 -0.82459,-2.23124 -1.977617,-4.348442 -1.977617,-6.756853"
       id="path104" />
  </g>
  <g
     id="layer2"
     style="display:none">
    <path
       style="opacity:1;fill:#ffffff;stroke:none;stroke-width:1.8;stroke-linecap:round;stroke-linejoin:round;stroke-dasharray:none;stroke-opacity:1"
       d="m 44.348395,15.608821 c 0.486469,-0.0973 1.556701,0.194589 1.459409,-0.29188 -0.0973,-0.48647 -1.920032,0.10764 -1.459409,0.29188 9.565926,3.826371 -3.724477,-3.701785 5.545754,1.751293 6.443967,3.790569 13.354915,6.913881 20.431726,9.340217 7.18985,2.46509 14.72478,5.64912 22.183021,7.005166 5.351167,0.972938 -0.972938,-0.648628 2.918817,0 2.125975,0.354327 4.202025,1.529353 6.421397,1.751288 1.08485,0.108492 3.566,-0.520347 4.37823,0.291884 1.34181,1.341807 0.29107,11.680987 0,13.718445 -1.01267,7.08871 -4.01267,13.788754 -5.83764,20.72361 -3.157241,11.997537 -5.887085,23.76606 -10.507741,35.317706 -1.350393,3.37598 -2.181091,6.78383 -3.210701,10.21585 -0.138235,0.4608 0.01227,3.19847 -0.291881,3.50258 -1.030717,1.03072 -3.139621,3.25003 -4.086346,4.67011 -0.459557,0.68934 -0.640438,2.09985 -1.167528,2.62694 -1.950956,1.95096 -13.108044,-2.00824 -15.177855,-2.33505 -5.937951,-0.93757 -11.913478,-0.9522 -17.804791,-2.04317 -4.269665,-0.79068 -8.550785,-0.65248 -12.8428,-1.16753 -6.762077,-0.81145 -13.231013,-2.58249 -19.847964,-4.08635 -1.773627,-0.4031 -5.6957696,-0.73377 -7.0051644,-2.04317 -0.045737,-0.0457 4.7462694,-12.33407 5.2538724,-13.71845 3.036936,-8.282546 3.182167,-17.820846 4.086347,-26.561239 0.820099,-7.927633 2.399991,-15.541505 3.794462,-23.350545 2.978489,-13.899613 -0.901451,5.599811 0.875646,-8.172694 0.507624,-3.934089 1.546649,-5.636373 2.626937,-9.340215 1.164382,-3.992169 1.233809,-8.212221 2.043173,-12.25904 0.213894,-1.069472 0.967582,-3.394573 1.459409,-4.378227 0.311258,-0.622518 1.522911,-1.789542 1.751291,-2.626935 0.06777,-0.248484 0.003,-4.6640162 0.875645,-2.91882"
       id="path106" />
    <path
       style="opacity:1;fill:#ffffff;stroke:none;stroke-width:1.8;stroke-linecap:round;stroke-linejoin:round;stroke-dasharray:none;stroke-opacity:1"
       d="m 112.20932,34.542781 c 3.09513,-2.023736 7.71693,-3.463146 9.49401,-7.017316 0.18314,-0.366273 -0.73334,-3.859959 0.41278,-3.095873 3.08919,2.059453 -0.2088,12.004502 -0.41278,14.860196 -0.3078,4.309179 -1.63319,8.54883 -2.27031,12.796281 -0.49151,3.276763 -0.56327,6.626033 -1.03195,9.906798 -0.23852,1.669633 -0.85228,3.276412 -1.03196,4.953397 -0.10261,0.95768 0.13014,1.935156 0,2.889485 -0.4631,3.39603 -2.5001,7.822006 -3.30227,11.35154 -1.08937,4.793227 0.11836,-0.652481 -0.41278,4.127832 -0.33349,3.001404 -0.45288,0.394986 -0.61917,2.889481 -0.16611,2.491633 0.37037,5.167312 0,7.636492 -0.33928,2.26183 -0.86357,4.203826 -1.85753,6.191746 -0.38888,0.77775 -0.2509,1.94652 -0.61918,2.68309 -0.62628,1.25258 -1.67285,2.37078 -2.2703,3.71504 -1.28011,2.88023 -3.8977,3.87213 -5.98536,6.19175 -2.321757,2.57974 -4.299783,5.27443 -7.223705,7.22372 -0.412785,0.27518 -0.77773,0.64131 -1.23835,0.82556 -0.37094,0.14838 -4.272738,0.4919 -4.334224,0 -0.300801,-2.4064 2.891831,-7.77851 4.127833,-10.11319 0.883731,-1.66926 1.976255,-3.53123 2.476697,-5.36618 0.545905,-2.00165 -0.293915,-0.74345 0.825569,-3.30227 0.585253,-1.33772 1.380287,-2.48973 1.857525,-3.921436 1.767405,-5.30223 -0.249206,0.439936 0.825565,-4.12783 0.09674,-0.41117 1.3874,-3.54301 1.44474,-3.71505 0.60007,-1.800207 0.79721,-3.734485 1.23835,-5.572576 1.68817,-7.034037 3.78669,-13.849564 4.74701,-21.051943 0.49984,-3.748833 0.46107,-7.64079 1.03195,-11.35154 0.25977,-1.688474 0.6956,-4.150702 1.23836,-5.778965 0.50829,-1.524897 1.5747,-2.843684 1.85752,-4.540615 0.20093,-1.205607 0.41278,-4.672663 0.41278,-5.985356"
       id="path107" />
    <path
       style="opacity:1;fill:#ffffff;stroke:none;stroke-width:1.8;stroke-linecap:round;stroke-linejoin:round;stroke-dasharray:none;stroke-opacity:1"
       d="m 42.448951,3.7904298 c 3.495095,1.584852 7.075403,3.228113 10.525971,4.953399 0.717607,0.358801 1.312694,0.956641 2.063916,1.23835 0.922312,0.3458662 1.951713,0.3177482 2.889485,0.6191752 0.997618,0.320662 1.891863,0.917685 2.889481,1.238347 2.72958,0.877365 6.059186,1.535985 8.874842,2.06392 2.038682,0.382251 4.153064,0.236919 6.191747,0.619174 5.651249,1.059607 10.920026,3.465625 16.304938,5.366182 1.369872,0.483484 2.865213,1.115933 4.334223,1.238348 3.983946,0.331995 18.349086,0.127311 19.607206,5.159793 1.03191,4.127642 -12.94272,4.926772 -15.06659,4.540613 C 99.615563,30.564347 98.348954,30.148927 96.93634,29.795775 94.86981,29.279143 92.625079,29.593976 90.538197,29.176598 86.082277,28.285415 81.464825,26.832734 77.122745,25.461549 76.555657,25.28247 73.738729,24.185857 72.99491,24.01681 69.712427,23.27079 66.09078,23.228969 62.881719,22.159285 58.67993,20.758686 54.437744,19.006857 50.291832,17.412276 45.661155,15.631247 41.246118,13.717522 36.876377,11.220527 c -0.123859,-0.07077 -4.71923,-1.2661262 -4.334224,-1.6511322 0.227654,-0.227654 1.795793,0.201248 1.857525,0.206391 3.626382,0.3021992 7.291,0.206393 10.938754,0.206393 0.332114,0 3.095876,0.8273722 3.095876,0.8255662 0,-0.206391 -0.416792,0.04048 -0.619174,0 -0.600979,-0.12019 -1.167908,-0.487308 -1.651133,-0.8255662 -1.512764,-1.058934 -3.086972,-3.181785 -4.953402,-3.71505 -0.2646,-0.07561 -0.579427,0.12307 -0.825565,0 -0.221865,-0.110935 -0.190919,-0.508243 -0.412782,-0.619175 -0.46863,-0.234314 -1.815227,-0.24869 -1.444743,-0.619174 0.327366,-0.327365 1.651237,0.225096 2.063916,0 0.653291,-0.356341 1.238352,-0.825568 1.857526,-1.23835 z"
       id="path108" />
    <path
       style="opacity:1;fill:none;stroke:#000000;stroke-width:1.8;stroke-linecap:round;stroke-linejoin:round;stroke-dasharray:none;stroke-opacity:1"
       d="m 79.769412,71.380697 c -0.320661,2.751086 -0.154678,5.572177 -0.909705,8.261022 -1.078901,3.842244 -5.053202,12.97641 -7.98868,15.494681 C 67.163106,98.317332 60.379,99.323619 55.668438,99.665897 52.0322,99.930112 45.877463,99.715764 42.756635,97.845002 40.519441,96.503926 39.86868,94.763293 38.868334,92.410306 38.329382,91.1426 36.65433,88.598632 36.487841,87.229811 35.877162,82.209003 36.231879,76.749598 36.980459,71.717007 c 0.677672,-4.555878 0.907789,-9.202406 3.636458,-13.05078"
       id="path109" />
    <path
       style="opacity:1;fill:none;stroke:#000000;stroke-width:1.8;stroke-linecap:round;stroke-linejoin:round;stroke-dasharray:none;stroke-opacity:1"
       d="m 75.630908,72.579882 c 0.260776,1.829025 -0.562567,3.377745 -1.169145,5.015772 -0.532063,1.436798 -1.204509,2.947994 -2.273192,4.04771 -0.633813,0.652215 -1.074215,1.313494 -1.988901,1.615027 -1.405938,0.463478 -4.973675,-0.123138 -6.21682,-0.868333 -0.721769,-0.432662 -3.126068,-5.097848 -3.448668,-6.252662 -0.384605,-1.37677 -0.06406,-3.01239 0.04322,-4.414671 0.05859,-0.76582 0.18853,-3.008264 1.042198,-3.356473 0.329577,-0.134432 4.462656,0.243245 5.278114,0.305633 1.303863,0.09975 2.715727,0.0628 4.001787,0.306162 1.755994,0.332281 3.625129,1.509528 5.023691,2.347888"
       id="path110" />
    <path
       style="opacity:1;fill:none;stroke:#000000;stroke-width:1.8;stroke-linecap:round;stroke-linejoin:round;stroke-dasharray:none;stroke-opacity:1"
       d="m 53.262948,67.23603 c -0.436552,1.815471 -1.98477,2.797978 -3.159102,4.07811 -0.698669,0.761618 -1.238189,1.518211 -2.033706,2.200664 -1.285378,1.102695 -3.286684,1.265614 -4.90957,1.293402 -0.936586,0.01604 -4.43326,0.08578 -5.158104,-0.590983 -0.20081,-0.187487 -0.163977,-0.378018 -0.24801,-0.608038 -0.1765,-0.483124 -0.639978,-1.472324 -0.73656,-1.92172 -0.478218,-2.225163 -0.05577,-4.725309 -0.15304,-6.982297 -0.0096,-0.22152 -0.201742,-4.048002 0.12589,-4.211992 0.975152,-0.488089 6.650545,0.312455 8.018509,0.417113 0.919344,0.07034 2.820462,-5.87e-4 3.5815,0.666714 0.489339,0.42907 0.723841,0.990256 1.261919,1.471028 0.67887,0.606569 1.225057,0.790194 1.847545,1.515831"
       id="path111" />
    <path
       style="opacity:1;fill:none;stroke:#000000;stroke-width:1.8;stroke-linecap:round;stroke-linejoin:round;stroke-dasharray:none;stroke-opacity:1"
       d="m 52.351812,69.023718 c -0.316763,-0.185207 -0.765088,-0.872386 -0.950291,-0.555617 -0.185202,0.316768 0.591123,0.480538 0.950291,0.555617 0.846188,0.176874 2.558689,-0.120368 3.441914,-0.219585 0.196775,-0.0221 1.616451,-0.562712 1.899291,-0.443756 0.274819,0.115581 2.545258,2.967024 2.884387,3.362348"
       id="path112" />
    <path
       style="opacity:1;fill:none;stroke:#000000;stroke-width:1.8;stroke-linecap:round;stroke-linejoin:round;stroke-dasharray:none;stroke-opacity:1"
       d="m 44.690286,87.996193 c 1.071348,1.583109 0.987064,2.093144 3.111784,1.973617 0.124775,-0.007 1.226401,-0.42948 1.279265,-0.388081 0.269896,0.211363 0.401568,0.573216 0.632084,0.811999 0.622923,0.645254 2.441248,1.399098 3.318462,1.086946 0.549527,-0.195548 0.971263,-0.76393 1.533839,-0.993402"
       id="path113" />
    <path
       style="opacity:1;fill:none;stroke:#000000;stroke-width:1.8;stroke-linecap:round;stroke-linejoin:round;stroke-dasharray:none;stroke-opacity:1"
       d="m 63.748807,74.806284 c 0.128369,-1.358545 1.463453,-2.631766 2.844413,-2.698104 0.661688,-0.03178 1.415404,0.108287 2.070506,0.158407 0.891984,0.06824 2.092393,-0.02049 2.877586,0.497842 0.915177,0.604135 0.884383,1.758408 1.253983,2.664545"
       id="path114" />
    <path
       style="opacity:1;fill:none;stroke:#000000;stroke-width:1.8;stroke-linecap:round;stroke-linejoin:round;stroke-dasharray:none;stroke-opacity:1"
       d="m 64.167376,73.623173 c 0.3427,-0.0085 0.697857,0.06657 1.028104,-0.02539 0.36692,-0.102159 0.529612,-0.555359 0.84431,-0.769913 0.295878,-0.201721 1.753141,-1.024643 1.993161,-0.387486 0.265989,0.706096 0.189647,1.48652 0.222401,2.226005 0.07118,1.607051 -0.146376,3.224383 -0.992869,4.63655 -0.871246,1.453461 -2.727338,-0.528543 -3.13134,-1.417694 -0.425895,-0.937338 -0.497963,-1.949096 0.02135,-2.84551 0.390987,-0.674904 0.878786,-1.277204 1.230467,-1.967585 0.410636,-0.806106 0.770665,0.393786 0.878706,0.70538 0.547333,1.578533 1.101116,2.83586 0.249589,4.437073 -0.02726,0.05127 -0.269626,0.545294 -0.386419,0.559501 -0.333699,0.04059 -0.286607,-0.399318 -0.296811,-0.611772 -0.0443,-0.92226 -0.04083,-1.87524 0.06641,-2.792971 0.04674,-0.400059 0.453935,-0.863328 0.60803,-0.248014"
       id="path115" />
    <path
       style="opacity:1;fill:none;stroke:#000000;stroke-width:1.8;stroke-linecap:round;stroke-linejoin:round;stroke-dasharray:none;stroke-opacity:1"
       d="m 48.274705,68.916123 c -0.477392,-0.695047 -0.996627,-1.363926 -1.513661,-2.030262 -0.454436,-0.585666 -1.570575,-2.21574 -2.365966,-2.439091 -1.212224,-0.3404 -2.550558,0.161383 -3.750045,0.253073 -0.249084,0.01905 -0.683035,0.06412 -0.566695,0.349355"
       id="path116" />
    <path
       style="opacity:1;fill:none;stroke:#000000;stroke-width:1.8;stroke-linecap:round;stroke-linejoin:round;stroke-dasharray:none;stroke-opacity:1"
       d="m 41.232506,69.211856 c 0.03671,-1.10564 1.304167,-3.876404 2.742547,-3.766359 0.08864,0.0068 0.360786,1.152316 0.394679,1.257413 0.64361,1.995781 0.3305,2.676524 0.08825,4.621085 -0.05003,0.40167 0.06475,1.030408 -0.250952,1.355281 -0.20853,0.214586 -0.468255,0.307797 -0.758169,0.285616 -1.233041,-0.09434 -1.686622,-1.490083 -1.866746,-2.548161 -0.0392,-0.230284 -0.02904,-0.470099 -0.09413,-0.694442 -0.05303,-0.18273 -0.290119,-0.323347 -0.255477,-0.510433 0.05978,-0.32285 0.379141,-0.54219 0.506426,-0.84485 0.320507,-0.76209 0.366032,-1.736165 0.967526,-2.380412 0.177258,-0.189857 0.446829,0.249799 0.713629,0.938194 0.352182,0.908701 1.526236,3.573727 0.688811,4.470676 -0.0904,0.09682 -0.316852,0.37907 -0.472825,0.405626 -1.070167,0.182185 -0.18551,-3.636233 -0.238126,-3.945312"
       id="path117" />
    <path
       style="opacity:1;fill:none;stroke:#000000;stroke-width:1.8;stroke-linecap:round;stroke-linejoin:round;stroke-dasharray:none;stroke-opacity:1"
       d="m 79.504028,75.116349 c -1.325889,-0.389995 -2.703757,-0.634039 -3.977664,-1.169985 -3.51947,-1.480676 -5.979244,-5.700179 -7.766726,-8.841097 -0.383965,-0.674696 -1.364234,-2.881009 -1.68326,-3.663162 -0.144245,-0.353642 -0.279142,-1.484353 -0.308277,-1.103535 -0.09973,1.303498 0.147168,1.99703 -0.06615,3.431144 -0.174493,1.173064 -0.540921,2.31033 -0.756851,3.47648 -0.01573,0.08496 -0.347731,2.286507 -0.381896,2.425213 -0.103743,0.421205 -0.245595,0.64367 -0.27735,1.058732 -1.166782,-0.857203 -2.260465,-1.495984 -2.719048,-2.956989 -0.616526,-1.964191 -0.307,-2.526079 -0.632541,-4.564548 -0.198633,-1.24379 -0.537952,-2.461015 -0.797354,-3.693564 -0.08736,-0.4151 0.02454,-1.17625 -0.398413,-1.208609 -0.09761,-0.0075 -0.0073,0.196103 -0.0224,0.292819 -0.277943,1.777163 -0.706097,4.386932 -1.063545,6.201979 -0.09446,0.479657 -0.292137,5.283869 -2.303063,4.438135 -0.255221,-0.107342 -0.332641,-0.447901 -0.540822,-0.63044 -1.789525,-1.56911 -1.298968,-4.385529 -1.459238,-6.591343 -0.05016,-0.690375 -0.08709,-1.381663 -0.135997,-2.072127 -0.01458,-0.205857 -0.07939,-0.794342 -0.150404,-0.600572 -0.964072,2.630761 -1.829627,5.296659 -2.7671,7.937017 -0.977927,2.754293 -0.0678,0.518585 -0.84005,1.997453 -0.03378,0.06468 -0.194739,0.155202 -0.202677,0.08267 -0.160346,-1.46541 0.02219,-2.949971 -0.05438,-4.422139 -0.167517,-3.220809 -0.165594,-3.244519 -0.888547,-6.351327 -0.108813,-0.467613 -0.632098,-2.509327 -0.924827,-3.310606 -0.0066,-0.01793 -0.118253,-0.180683 -0.187742,-0.11254 -2.805821,2.751457 -4.590104,7.011546 -8.232428,8.79519 -0.157812,0.07728 -0.340255,0.09151 -0.502958,0.157874 -0.0282,0.0115 -0.271453,0.272162 -0.307749,0.17281 -0.12365,-0.338464 0.02215,-1.371872 -0.53903,-1.554471"
       id="path118" />
    <path
       style="opacity:1;fill:none;stroke:#000000;stroke-width:1.8;stroke-linecap:round;stroke-linejoin:round;stroke-dasharray:none;stroke-opacity:1"
       d="m 78.197521,81.672515 c -0.482841,-0.173702 -0.270672,0.702871 0.245209,0.351153 1.131347,-0.771326 0.313913,-1.739762 1.516339,-0.571231 0.932786,0.906492 1.719958,2.042236 2.726515,2.859383 0.690066,0.560219 0.408752,0.14294 1.133918,0.577638 0.201818,0.120978 0.341406,0.338178 0.555758,0.435229 0.237803,0.107664 0.520558,0.03983 0.780837,0.05974 0.09761,0.0075 0.285347,0.120007 0.292814,0.0224 0.05728,-0.748747 -0.239292,-4.141544 -0.715212,-4.767229 -0.604758,-0.795063 -2.188332,-0.849976 -1.832083,-0.434699 0.728345,0.849036 1.520281,-3.236588 1.530219,-3.319134 0.145063,-1.204987 0.43042,-4.208613 0.215504,-5.383264 -0.03424,-0.187161 -0.451109,-0.519866 -0.465623,-0.330155 -0.0883,1.154179 1.954936,2.81908 2.696644,3.249807 1.199339,0.69648 1.300688,0.590397 2.500383,0.682182 0.585628,0.0448 1.171255,0.08961 1.756881,0.134412 0.308655,0.02361 1.144563,-0.03475 0.900844,-0.225613 -0.321774,-0.251989 -3.546741,-2.755799 -3.604956,-2.926588 -0.162693,-0.477273 0.004,-0.362524 -0.0304,-0.88592 -0.01628,-0.247975 -0.210543,-0.458957 -0.240541,-0.705645 -0.104385,-0.858195 -0.0088,-1.786986 0.0064,-2.650297 0.02417,-1.372896 -0.450284,-6.603636 -0.979212,-7.732743 -0.227024,-0.484639 -0.585978,-0.895704 -0.878967,-1.343555 -0.726828,-0.831023 -1.340726,-1.775513 -2.058217,-2.611897 -1.342504,-1.564966 -3.068883,-2.504355 -4.731405,-3.601834 -0.561205,-0.370466 -1.078972,-0.926216 -1.562201,-1.395823 -0.08437,-0.08199 -0.268904,-0.334922 -0.277879,-0.217613 -0.0013,0.01764 1.153062,-0.575986 1.824089,-0.744042 0.579924,-0.145239 1.69007,1.181385 0.781364,1.336084 -1.377249,0.234465 -2.0163,-0.89937 -3.131341,-1.417695 -1.005757,-0.467524 -1.852682,-0.174246 -2.852933,0.07626 -0.06232,0.01561 -1.507729,0.458652 -1.508875,0.473626 -0.0062,0.08161 0.342467,0.03772 0.570167,-1.036329 0.262985,-1.240496 0.137051,-2.897903 -1.330182,-3.145264 -0.381145,-0.06426 -1.922477,-0.357151 -2.252372,-0.07414 -0.388933,0.333655 -1.784461,2.962566 -2.266253,2.673759 -0.327578,-0.196364 -0.171586,-0.746905 -0.308276,-1.103535 -0.606846,-1.583291 -1.57929,-3.860547 -3.402807,-4.285606 -0.732627,-0.170774 -3.511863,1.381589 -4.36128,1.826235 -0.168565,0.08824 -0.140442,0.480142 -0.330152,0.465628 -0.290999,-0.02226 -0.193229,-0.553254 -0.330678,-0.810716 -0.285845,-0.535436 -0.615255,-1.047819 -0.961637,-1.546232 -0.263147,-0.378643 -2.702854,-3.220756 -3.019329,-2.881784 -1.459743,1.563501 -2.602516,3.133667 -2.182529,5.429129 0.224691,1.228056 0.720441,1.621164 1.585131,2.37935 0.404972,0.355092 1.046927,0.743465 0.916305,0.855521 -0.149746,0.128464 -0.68121,-0.464503 -1.209118,-0.877923 -1.26096,-0.98749 -2.95556,-1.796955 -4.56554,-1.920129 -2.979427,-0.227945 -5.725405,-1.039208 -8.468667,0.333866 -0.454141,0.227309 -1.263881,0.628253 -1.643815,0.954189 -0.645353,0.553631 -1.105053,1.531854 -1.913699,1.915312 -1.008948,0.478444 -1.919698,0.44768 -2.995343,0.654433 -0.651555,0.12524 -1.212613,0.299938 -1.884357,0.248546 -0.195209,-0.01494 -0.417706,0.05586 -0.585627,-0.04481 -0.188489,-0.112987 -2.193403,-2.128158 -2.185693,-2.228943 0.0075,-0.09761 0.250871,-0.06605 0.292815,0.0224 0.09886,0.20848 0.0465,0.45998 0.04533,0.69071 -0.0065,1.292527 -0.114254,2.52783 0.0016,3.829035 0.09921,1.114479 0.288722,2.287969 0.526942,3.378343 0.09218,0.421926 0.91874,1.807932 0.706689,2.312144 -0.21896,0.52064 -1.542162,1.132627 -1.996369,1.712634 -0.689598,0.880597 -1.034652,3.155196 -0.103489,3.919175 0.753991,0.618616 1.586543,1.324794 2.410771,1.853453 0.209174,0.134165 0.739315,0.109306 0.66083,0.345089 -0.233523,0.701545 -3.137719,2.161346 -3.767658,3.049779 -0.931282,1.313433 1.370448,1.451161 2.320634,1.74838 0.196959,0.0616 0.55495,0.445788 0.570692,0.240017 0.03278,-0.428473 -0.42318,0.5245 -1.441138,0.871517 -0.920592,0.313823 -1.636549,0.67101 -2.447054,1.187266 -0.0309,0.01968 -0.944729,-0.157987 -0.217611,0.277884 0.729807,0.43748 1.68627,0.233641 2.522783,0.389364 0.553766,0.103083 1.081987,0.322893 1.636876,0.419762 1.241544,0.216743 2.574789,0.232441 3.821511,0.09602 0.133738,-0.01463 0.528393,-0.100421 0.397887,-0.06773 -0.07078,0.01773 -0.273982,0.06721 -0.202678,0.08267 0.380719,0.08258 0.774645,0.08362 1.161967,0.125424"
       id="path119" />
    <path
       style="opacity:1;fill:none;stroke:#000000;stroke-width:1.8;stroke-linecap:round;stroke-linejoin:round;stroke-dasharray:none;stroke-opacity:1"
       d="m 82.685584,84.31182 c 0.639367,1.86277 -0.263031,3.883875 -0.593824,5.712758 -0.33433,1.84845 -0.285954,1.752288 0.213822,3.556875 0.07441,0.268678 0.237413,0.511246 0.287002,0.785597 0.206769,1.143933 -0.125476,2.385053 -0.131262,3.530471 -0.0028,0.558058 0.06119,1.114531 0.08033,1.672269 0.01261,0.367601 -0.0883,0.88174 -0.02603,1.2476 0.01731,0.10172 0.195229,0.21945 0.116914,0.28663 -0.08465,0.0726 -2.161006,0.36172 -2.250782,0.38318 -1.423104,0.34019 -2.736975,1.12532 -3.90116,1.99246 -0.838919,0.62486 -1.61081,1.4019 -2.38279,2.10862 -0.364188,0.33341 -2.039753,2.92058 -2.680349,1.46106 -0.387332,-0.88248 -0.525215,-1.87978 -0.616992,-2.82408 -0.173059,-1.78063 -0.09627,-3.41507 -0.01808,-5.208017 0.125107,-2.868818 0.18598,-5.84949 1.679448,-8.340979 0.0671,-0.111948 -0.199023,-0.179255 -0.254945,-0.297191 -0.05864,-0.123669 -0.03907,-0.775153 -3.74e-4,-0.902512 0.125496,-0.412941 0.440909,-0.75836 0.641901,-1.131061 0.666061,-1.23509 1.26396,-2.560858 1.686594,-3.897431 0.683696,-2.162184 1.118197,-4.354833 2.556295,-6.191237 0.159029,-0.203078 0.888183,-1.107005 1.194032,-1.088822 0.345525,0.02052 0.686965,0.0855 1.030448,0.12824"
       id="path120" />
    <path
       style="opacity:1;fill:none;stroke:#000000;stroke-width:1.8;stroke-linecap:round;stroke-linejoin:round;stroke-dasharray:none;stroke-opacity:1"
       d="m 35.209797,74.788985 c -0.543137,-0.172457 -1.106354,-0.74354 -1.629408,-0.51737 -0.423557,0.183148 -0.193223,0.902551 -0.299753,1.35155 -0.660089,2.782072 -1.544073,5.513067 -2.68443,8.139694 -0.308883,0.711459 -0.737187,1.367229 -1.042726,2.080126 -0.533254,1.24421 -0.871203,2.564612 -1.37235,3.8221 -0.695563,1.745326 -2.022777,3.645962 -1.51423,5.676613 0.06959,0.277852 1.80042,-0.04158 1.869421,-0.05333 2.722666,-0.463508 5.233702,-0.621852 7.784906,-1.662484 0.28663,-0.116915 0.59251,-0.198162 0.900844,-0.225612 0.09751,-0.0087 0.202581,-0.01555 0.292815,0.0224 0.06016,0.02528 -0.06551,0.236459 -0.01493,0.195212 0.471425,-0.384496 0.912255,-0.805052 1.368383,-1.207578"
       id="path121" />
    <path
       style="opacity:1;fill:none;stroke:#000000;stroke-width:1.8;stroke-linecap:round;stroke-linejoin:round;stroke-dasharray:none;stroke-opacity:1"
       d="m 68.755256,71.66114 c -0.03602,-0.211615 -0.04083,-0.213013 -0.03213,-0.542434 0.01383,-0.523822 0.03448,-0.583626 0.206015,-1.088733 0.04397,-0.129484 0.09886,-0.255037 0.151874,-0.381088 0.02703,-0.06425 0.05739,-0.127062 0.08814,-0.189612 0.0081,-0.01636 0.04633,-0.04555 0.02813,-0.04694 -0.02933,-0.0022 -0.0513,0.0288 -0.07694,0.04321"
       id="path122" />
    <path
       style="opacity:1;fill:none;stroke:#000000;stroke-width:1.8;stroke-linecap:round;stroke-linejoin:round;stroke-dasharray:none;stroke-opacity:1"
       d="m 63.389663,73.140551 c -0.0388,-0.02751 -0.08883,-0.04378 -0.116405,-0.08254 -0.122041,-0.171536 -0.20946,-0.365652 -0.326813,-0.540433 -0.434487,-0.647095 -0.857817,-1.132944 -1.260184,-1.814513 -0.289365,-0.490157 -0.28864,-0.39776 -0.268675,-0.658709"
       id="path123" />
    <path
       style="opacity:1;fill:none;stroke:#000000;stroke-width:1.8;stroke-linecap:round;stroke-linejoin:round;stroke-dasharray:none;stroke-opacity:1"
       d="m 38.513639,84.859479 c -0.678201,0.266666 -1.274824,0.685301 -1.940362,0.98059 -0.358549,0.159083 -1.148775,0.338129 -0.206954,0.25123"
       id="path124" />
    <path
       style="opacity:1;fill:none;stroke:#000000;stroke-width:1.8;stroke-linecap:round;stroke-linejoin:round;stroke-dasharray:none;stroke-opacity:1"
       d="m 59.430843,95.050291 c 0.310513,0.934708 0.186955,3.407262 0.722413,4.031452 0.197058,0.229708 0.137151,-0.632921 0.246416,0.04466"
       id="path125" />
    <path
       style="opacity:1;fill:none;stroke:#000000;stroke-width:1.8;stroke-linecap:round;stroke-linejoin:round;stroke-dasharray:none;stroke-opacity:1"
       d="m 63.875317,94.703082 c 0.256193,0.940705 0.488333,1.896431 1.018437,2.728702 0.243263,0.381928 0.414415,0.05096 0.56465,0.515937"
       id="path126" />
    <path
       style="opacity:1;fill:none;stroke:#000000;stroke-width:1.8;stroke-linecap:round;stroke-linejoin:round;stroke-dasharray:none;stroke-opacity:1"
       d="m 47.439683,80.188318 c 0.377773,0.440373 -0.01859,0.02588 0.456715,0.382052 0.269774,0.202156 0.774698,1.216395 0.746544,1.584395"
       id="path127" />
    <path
       style="opacity:1;fill:none;stroke:#000000;stroke-width:1.8;stroke-linecap:round;stroke-linejoin:round;stroke-dasharray:none;stroke-opacity:1"
       d="m 53.10301,83.745581 c 1.020902,-0.211328 2.119856,-0.08019 3.171946,-0.173858"
       id="path128" />
  </g>
  <g
     id="layer3">
    <path
       id="path137"
       style="fill:#01002c;fill-opacity:1;stroke:#01002c;stroke-width:8.46667;stroke-linecap:square;stroke-linejoin:round;stroke-dasharray:none;stroke-opacity:1;paint-order:stroke markers fill"
       d="M 15.949267,7.4822893 A 7.8519609,7.8518937 0 0 0 7.8136477,15.329134 V 117.75848 L 93.15569,127.98952 v -2.56715 c 0.445575,-0.29005 0.869911,-0.58485 1.27433,-0.88303 1.930971,-1.42091 3.38432,-2.90695 4.509326,-4.29091 v 0.0286 c 2.680234,-2.99426 3.266734,-5.63926 3.266734,-5.63926 v -1.14635 h 2.123 l 2.04686,-2.97377 V 94.889478 c 21.26084,1.660692 21.27708,7.880692 21.27708,7.880692 V 82.305973 81.560417 59.546422 c 0,-5.963916 -11.84756,-8.334152 -21.27708,-9.284552 V 10.757448 Z" />
    <path
       style="fill:#38865e;fill-opacity:1;stroke-width:2.20757;stroke-linecap:square;stroke-linejoin:round;stroke-dasharray:none;paint-order:stroke markers fill"
       d="M 12.866326,120.3023 5.8504462,119.48094 V 12.652293 A 8.1891182,8.1891182 136.03705 0 1 14.335944,4.4685402 l 94.309316,3.415466 V 111.9291 l -2.1349,3.10105 H 25.637066 Z"
       id="path2"
       transform="matrix(0.95882862,0,0,0.95882041,2.2038171,3.197941)" />
    <path
       id="rect2"
       style="fill:#1d3f45;fill-opacity:1;stroke-width:2.20757;stroke-linecap:square;stroke-linejoin:round;paint-order:stroke markers fill"
       d="M 13.383628,9.9349553 106.51036,12.796318 V 117.82692 H 8.6233778 V 14.551191 A 4.6184145,4.6184145 135.87994 0 1 13.383628,9.9349553 Z"
       transform="matrix(0.95882862,0,0,0.95882041,2.2038171,0.51633999)" />
    <path
       style="fill:#abb2d1;fill-opacity:1;stroke-width:2.20757;stroke-linecap:square;stroke-linejoin:round;-inkscape-stroke:none;paint-order:stroke markers fill"
       d="m 15.519565,9.701596 88.776685,3.003247 V 116.22612 c 0,0 -1.84426,6.30365 -9.439112,11.24769 -16.082116,-1.48322 -83.568249,-12.44366 -83.568249,-12.44366 l 0,-101.238578 a 4.0923151,4.0923151 135.96877 0 1 4.230676,-4.089976 z"
       id="path1"
       transform="matrix(0.95882862,0,0,0.95882041,2.2038171,3.197941)" />
    <path
       style="font-variation-settings:normal;opacity:1;vector-effect:none;fill:#e4e4e4;fill-opacity:1;stroke-width:2.11667;stroke-linecap:square;stroke-linejoin:round;stroke-miterlimit:4;stroke-dasharray:none;stroke-dashoffset:0;stroke-opacity:1;-inkscape-stroke:none;paint-order:stroke markers fill"
       d="m 99.397309,19.66805 2.808741,-4.288447 -85.121629,-2.879574 -2.63769,5.176017 75.97278,9.27287 z"
       id="path136" />
    <path
       id="path86"
       style="font-variation-settings:normal;opacity:1;vector-effect:none;fill:#7a7aab;fill-opacity:1;stroke-width:2.11667;stroke-linecap:square;stroke-linejoin:round;stroke-miterlimit:4;stroke-dasharray:none;stroke-dashoffset:0;stroke-opacity:1;-inkscape-stroke:none;paint-order:stroke markers fill"
       d="m 17.084246,12.500251 c -0.601538,0.0028 -1.345012,0.141405 -1.883351,0.409819 -0.198735,0.09744 -0.364138,0.199193 -0.542696,0.327826 -0.457222,0.25202 -0.591671,0.498205 -0.827223,0.805227 -0.226127,0.296696 -0.41326,0.631205 -0.548593,0.988456 -0.287559,0.343933 -0.04467,0.517391 -0.08881,0.784016 L 86.497165,124.64297 c 2.598269,0.33047 5.028087,0.62902 6.658772,0.7794 0.891149,-0.5801 1.696819,-1.17993 2.429687,-1.78563 l -0.203576,-25.712692 6.824282,3.833692 -2.8e-4,12.87998 h 2.8e-4 V 15.379366 Z m 1.563428,0.05267 83.558376,2.826691 2.8e-4,38.505358 -7.222444,-6.232542 -0.200932,-25.343616 -31.858252,-3.636569 z" />
    <rect
       style="fill:#38865e;fill-opacity:1;stroke-width:2.12426;stroke-linecap:square;stroke-linejoin:round;-inkscape-stroke:none;paint-order:stroke markers fill"
       id="rect1"
       width="84.185249"
       height="103.58926"
       x="9.6399536"
       y="13.210413"
       transform="matrix(0.99286284,0.11926178,0,1,0,0)" />
    <path
       style="font-variation-settings:normal;opacity:1;vector-effect:none;fill:#1d3f45;fill-opacity:1;stroke-width:2.11667;stroke-linecap:square;stroke-linejoin:round;stroke-miterlimit:4;stroke-dasharray:none;stroke-dashoffset:0;stroke-opacity:1;-inkscape-stroke:none;paint-order:stroke markers fill;stop-color:#000000;stop-opacity:1"
       d="m 19.443019,49.30988 v 2.534744 l 61.73602,8.048556 V 36.522556 l -3.150085,-0.73979 z"
       id="path95" />
    <rect
       style="fill:#e4b862;fill-opacity:1;stroke-width:2.12577;stroke-linecap:square;stroke-linejoin:round;-inkscape-stroke:none;paint-order:stroke markers fill"
       id="rect1-8"
       width="59.090778"
       height="21.234806"
       x="19.610561"
       y="25.517113"
       transform="matrix(0.99145645,0.1304381,0,1,0,0)" />
    <path
       style="fill:#ffeebe;fill-opacity:1;stroke-width:2.11667;stroke-linecap:square;stroke-linejoin:round;-inkscape-stroke:none;paint-order:stroke markers fill"
       d="m 78.028961,35.782767 -3e-6,3.637219 -55.803243,-7.217702 0.170719,17.496157 -2.953415,-0.388558 V 28.075077 Z"
       id="path44" />
    <path
       style="font-variation-settings:normal;opacity:1;vector-effect:none;fill:#1d3f45;fill-opacity:1;stroke-width:2.11667;stroke-linecap:square;stroke-linejoin:round;stroke-miterlimit:4;stroke-dasharray:none;stroke-dashoffset:0;stroke-opacity:1;-inkscape-stroke:none;paint-order:stroke markers fill;stop-color:#000000;stop-opacity:1"
       d="m 93.155563,24.400173 -2.736048,2.548743 0.462021,100.767974 2.274027,0.27253 z"
       id="path45" />
    <path
       style="font-variation-settings:normal;opacity:1;vector-effect:none;fill:#c1e4c5;fill-opacity:1;stroke-width:2.11667;stroke-linecap:square;stroke-linejoin:round;stroke-miterlimit:4;stroke-dasharray:none;stroke-dashoffset:0;stroke-opacity:1;-inkscape-stroke:none;paint-order:stroke markers fill"
       d="M 90.419513,26.948916 7.8133928,16.866414 10.472159,14.468319 93.155563,24.400173 Z"
       id="path59" />
    <g
       id="g135"
       transform="matrix(1.0232279,0,0,1.0232191,-3.3907245,-0.79374189)"
       style="stroke-width:0.977304">
      <path
         style="font-variation-settings:normal;opacity:1;vector-effect:none;fill:#e8ce49;fill-opacity:1;stroke-width:2.06863;stroke-linecap:square;stroke-linejoin:round;stroke-miterlimit:4;stroke-dasharray:none;stroke-dashoffset:0;stroke-opacity:1;-inkscape-stroke:none;paint-order:stroke markers fill"
         d="m 96.138996,49.269401 c 0,0 31.929804,0.02913 31.929804,9.701298 V 101.2136 c 0,0 0,-8.098987 -31.929804,-8.098987 z"
         id="path105" />
      <path
         style="font-variation-settings:normal;opacity:1;vector-effect:none;fill:#ffffff;fill-opacity:1;stroke-width:2.06863;stroke-linecap:square;stroke-linejoin:round;stroke-miterlimit:4;stroke-dasharray:none;stroke-dashoffset:0;stroke-opacity:1;-inkscape-stroke:none;paint-order:stroke markers fill"
         d="m 96.138996,60.32538 c 0,0 31.929804,0.0437 31.929804,9.715865 v 11.17252 c 0,0 -3.62563,-9.715865 -31.929804,-9.715865"
         id="path131" />
      <path
         style="font-variation-settings:normal;opacity:1;vector-effect:none;fill:#b873d0;fill-opacity:1;stroke-width:2.06863;stroke-linecap:square;stroke-linejoin:round;stroke-miterlimit:4;stroke-dasharray:none;stroke-dashoffset:0;stroke-opacity:1;-inkscape-stroke:none;paint-order:stroke markers fill"
         d="m 96.138996,70.769573 c 0,0 31.929804,0.0437 31.929804,9.715865 v 11.17252 c 0,0 -3.62563,-9.715865 -31.929804,-9.715865"
         id="path130" />
      <path
         style="font-variation-settings:normal;opacity:1;vector-effect:none;fill:#02003f;fill-opacity:1;stroke-width:2.06863;stroke-linecap:square;stroke-linejoin:round;stroke-miterlimit:4;stroke-dasharray:none;stroke-dashoffset:0;stroke-opacity:1;-inkscape-stroke:none;paint-order:stroke markers fill"
         d="m 96.138996,81.942093 c 0,0 31.929804,0.0437 31.929804,9.715865 v 9.555642 c 0,0 0,-8.098987 -31.929804,-8.098987"
         id="path129" />
      <path
         style="font-variation-settings:normal;opacity:1;mix-blend-mode:multiply;vector-effect:none;fill:url(#linearGradient133);fill-opacity:1;stroke-width:2.06863;stroke-linecap:square;stroke-linejoin:round;stroke-miterlimit:4;stroke-dasharray:none;stroke-dashoffset:0;stroke-opacity:1;-inkscape-stroke:none;paint-order:stroke markers fill;stop-color:#000000;stop-opacity:1"
         d="m 96.138996,49.269401 c 0,0 31.929804,0.02913 31.929804,9.701298 V 101.2136 c 0,0 0,-8.098987 -31.929804,-8.098987 z"
         id="path132" />
      <path
         style="font-variation-settings:normal;opacity:1;mix-blend-mode:multiply;vector-effect:none;fill:url(#linearGradient168);fill-opacity:1;stroke-width:2.06863;stroke-linecap:square;stroke-linejoin:round;stroke-miterlimit:4;stroke-dasharray:none;stroke-dashoffset:0;stroke-opacity:1;-inkscape-stroke:none;paint-order:stroke markers fill;stop-color:#000000;stop-opacity:1"
         d="m 96.138996,49.269401 c 0,0 31.929804,0.02913 31.929804,9.701298 V 101.2136 c 0,0 0,-8.098987 -31.929804,-8.098987 z"
         id="path168" />
    </g>
    <path
       style="font-variation-settings:normal;opacity:1;vector-effect:none;fill:#ffffff;fill-opacity:1;stroke-width:2.11667;stroke-linecap:square;stroke-linejoin:round;stroke-miterlimit:4;stroke-dasharray:none;stroke-dashoffset:0;stroke-opacity:1;-inkscape-stroke:none;paint-order:stroke markers fill"
       d="m 100.08817,15.307957 -7.403466,6.761337 2.09825,0.239513 0.0128,1.61669 7.410296,-5.867158 2.8e-4,-2.678973 z"
       id="path135" />
    <g
       id="g167"
       transform="matrix(1.9877614,0.53415109,0,1.9842417,1.2651374,-125.72783)"
       style="display:none;stroke-width:1.06579;stroke-dasharray:none">
      <path
         style="font-variation-settings:normal;opacity:1;fill:none;fill-opacity:1;stroke:#1d3f45;stroke-width:1.0658;stroke-linecap:round;stroke-linejoin:round;stroke-miterlimit:4;stroke-dasharray:none;stroke-dashoffset:0;stroke-opacity:1;paint-order:stroke markers fill"
         d="m 15.170232,96.074763 c 1.603723,0.570535 2.428702,3.663736 3.157712,5.289987 1.178795,2.62962 1.870204,5.40452 2.404541,8.22887 0.180684,0.95505 1.528118,3.3321 0.694645,2.83202 -1.56876,-0.94126 1.707468,-20.400962 0.501469,-23.53656"
         id="path161" />
      <path
         style="font-variation-settings:normal;opacity:1;fill:none;fill-opacity:1;stroke:#1d3f45;stroke-width:1.0658;stroke-linecap:round;stroke-linejoin:round;stroke-miterlimit:4;stroke-dasharray:none;stroke-dashoffset:0;stroke-opacity:1;paint-order:stroke markers fill"
         d="m 14.266942,100.93728 c 0.525153,-4.134902 10.823871,-12.164493 14.587548,-6.51898 4.866536,7.29981 2.88463,14.65648 -5.28999,16.99209 -1.327767,0.37936 -3.322754,0.98191 -4.702214,0.58778 -5.165215,-1.47578 -1.84533,-7.987 1.335856,-6.25181"
         id="path162" />
      <path
         style="font-variation-settings:normal;opacity:1;fill:none;fill-opacity:1;stroke:#1d3f45;stroke-width:1.0658;stroke-linecap:round;stroke-linejoin:round;stroke-miterlimit:4;stroke-dasharray:none;stroke-dashoffset:0;stroke-opacity:1;paint-order:stroke markers fill"
         d="m 12.557046,103.39525 c 2.340032,1.42738 5.68753,5.20143 7.694531,8.06857"
         id="path163" />
      <path
         style="font-variation-settings:normal;opacity:1;fill:none;fill-opacity:1;stroke:#1d3f45;stroke-width:1.0658;stroke-linecap:round;stroke-linejoin:round;stroke-miterlimit:4;stroke-dasharray:none;stroke-dashoffset:0;stroke-opacity:1;paint-order:stroke markers fill"
         d="m 19.236326,105.90666 c -0.641274,3.86148 -2.891072,6.56147 -5.129687,9.29756"
         id="path164" />
      <path
         style="font-variation-settings:normal;opacity:1;fill:none;fill-opacity:1;stroke:#1d3f45;stroke-width:1.0658;stroke-linecap:round;stroke-linejoin:round;stroke-miterlimit:4;stroke-dasharray:none;stroke-dashoffset:0;stroke-opacity:1;paint-order:stroke markers fill"
         d="m 17.720561,98.993329 c -0.331863,-0.972939 0.123875,-1.670764 0.982377,-2.153674 3.841808,-2.161016 3.169818,5.302425 -0.944593,2.83378"
         id="path165" />
      <path
         style="font-variation-settings:normal;opacity:1;fill:none;fill-opacity:1;stroke:#1d3f45;stroke-width:1.0658;stroke-linecap:round;stroke-linejoin:round;stroke-miterlimit:4;stroke-dasharray:none;stroke-dashoffset:0;stroke-opacity:1;paint-order:stroke markers fill"
         d="M 18.854073,96.46182 C 18.502274,95.217304 18.236602,93.613593 17.985047,92.230045"
         id="path166" />
      <path
         style="font-variation-settings:normal;opacity:1;fill:none;fill-opacity:1;stroke:#1d3f45;stroke-width:1.0658;stroke-linecap:round;stroke-linejoin:round;stroke-miterlimit:4;stroke-dasharray:none;stroke-dashoffset:0;stroke-opacity:1;paint-order:stroke markers fill"
         d="m 30.151403,91.209883 c -13.173587,5.751621 2.86711,8.081264 3.022698,8.236849 0.913953,0.913958 -4.163354,1.201938 -3.249401,2.115888 1.962277,1.96228 5.785154,-0.36043 6.120963,4.00507 0.602811,7.83656 -8.086846,7.47892 -10.655008,2.34259"
         id="path167" />
    </g>
  </g>
</svg>
